<svg height="512" viewBox="0 0 64 64" width="512" xmlns="http://www.w3.org/2000/svg"><path d="m62 34h-53v-24a3 3 0 0 1 3-3h5a3 3 0 0 1 3 3v4h-4a3 3 0 0 0 -3 3v2a1 1 0 0 0 1 1h14a1 1 0 0 0 1-1v-2a3 3 0 0 0 -3-3h-4v-4a5.006 5.006 0 0 0 -5-5h-5a5.006 5.006 0 0 0 -5 5v24h-5a1 1 0 0 0 -1 1v4a1 1 0 0 0 1 1h1v14a5.009 5.009 0 0 0 4 4.9v3.1a1 1 0 0 0 1 1h4a1 1 0 0 0 1-1v-3h38v3a1 1 0 0 0 1 1h4a1 1 0 0 0 1-1v-3.1a5.009 5.009 0 0 0 4-4.9v-14h1a1 1 0 0 0 1-1v-4a1 1 0 0 0 -1-1zm-36-18a1 1 0 0 1 1 1v1h-12v-1a1 1 0 0 1 1-1zm-15 45h-2v-2h2zm44 0h-2v-2h2zm4-7a3 3 0 0 1 -3 3h-48a3 3 0 0 1 -3-3v-14h54zm2-16h-58v-2h58z"/><path d="m44 45h7a1 1 0 0 0 0-2h-7a1 1 0 0 0 0 2z"/><path d="m54 45h1a1 1 0 0 0 0-2h-1a1 1 0 0 0 0 2z"/><path d="m22 22a1 1 0 0 0 -2 0v3a1 1 0 0 0 2 0z"/><path d="m21 27a1 1 0 0 0 -1 1v1a1 1 0 0 0 2 0v-1a1 1 0 0 0 -1-1z"/><path d="m26 22a1 1 0 0 0 -2 0v3a1 1 0 0 0 2 0z"/><path d="m18 23a1 1 0 0 0 -2 0v2a1 1 0 0 0 2 0z"/><circle cx="17" cy="28" r="1"/><circle cx="25" cy="28" r="1"/></svg>