<?xml version="1.0" encoding="utf-8"?>
<!-- Generator: Adobe Illustrator 22.1.0, SVG Export Plug-In . SVG Version: 6.00 Build 0)  -->
<svg version="1.1" id="Слой_1" xmlns="http://www.w3.org/2000/svg" xmlns:xlink="http://www.w3.org/1999/xlink" x="0px" y="0px"
	 viewBox="0 0 496 464" style="enable-background:new 0 0 496 464;" xml:space="preserve">
<path d="M488,232H64V40c0-13.3,10.7-24,24-24h40c13.3,0,24,10.7,24,24v32h-32c-13.3,0-24,10.7-24,24v16c0,4.4,3.6,8,8,8h112
	c4.4,0,8-3.6,8-8V96c0-13.3-10.7-24-24-24h-32V40c0-22.1-17.9-40-40-40H88C65.9,0,48,17.9,48,40v192H8c-4.4,0-8,3.6-8,8v32
	c0,4.4,3.6,8,8,8h8v112c0,19,13.4,35.4,32,39.2V456c0,4.4,3.6,8,8,8h32c4.4,0,8-3.6,8-8v-24h304v24c0,4.4,3.6,8,8,8h32
	c4.4,0,8-3.6,8-8v-24.8c18.6-3.8,32-20.2,32-39.2V280h8c4.4,0,8-3.6,8-8v-32C496,235.6,492.4,232,488,232z M200,88c4.4,0,8,3.6,8,8
	v8h-96v-8c0-4.4,3.6-8,8-8H200z M80,448H64v-16h16V448z M432,448h-16v-16h16V448z M464,392c0,13.3-10.7,24-24,24H56
	c-13.3,0-24-10.7-24-24V280h432V392z M480,264H16v-16h464V264z"/>
<path d="M344,320h56c4.4,0,8-3.6,8-8s-3.6-8-8-8h-56c-4.4,0-8,3.6-8,8S339.6,320,344,320z"/>
<path d="M424,320h8c4.4,0,8-3.6,8-8s-3.6-8-8-8h-8c-4.4,0-8,3.6-8,8S419.6,320,424,320z"/>
<path d="M168,136c0-4.4-3.6-8-8-8s-8,3.6-8,8v24c0,4.4,3.6,8,8,8s8-3.6,8-8V136z"/>
<path d="M160,176c-4.4,0-8,3.6-8,8v8c0,4.4,3.6,8,8,8s8-3.6,8-8v-8C168,179.6,164.4,176,160,176z"/>
<path d="M200,136c0-4.4-3.6-8-8-8s-8,3.6-8,8v24c0,4.4,3.6,8,8,8s8-3.6,8-8V136z"/>
<path d="M136,144c0-4.4-3.6-8-8-8s-8,3.6-8,8v16c0,4.4,3.6,8,8,8s8-3.6,8-8V144z"/>
<circle cx="128" cy="184" r="8"/>
<circle cx="192" cy="184" r="8"/>
</svg>
