<?xml version="1.0" encoding="utf-8"?>
<!-- Generator: Adobe Illustrator 22.1.0, SVG Export Plug-In . SVG Version: 6.00 Build 0)  -->
<svg version="1.1" id="Слой_1" xmlns="http://www.w3.org/2000/svg" xmlns:xlink="http://www.w3.org/1999/xlink" x="0px" y="0px"
	 viewBox="0 0 480 416" style="enable-background:new 0 0 480 416;" xml:space="preserve">
<g id="Blueprint">
	<path d="M424,0c-4.4,0-8,3.6-8,8v40H64V8c0-4.4-3.6-8-8-8C25.1,0,0,25.1,0,56v305.7c0,30,24.3,54.3,54.3,54.3h371.4
		c30,0,54.3-24.4,54.3-54.4V56C480,25.1,454.9,0,424,0z M16,56c0-19,13.4-35.4,32-39.2v287.8c-12.2,1.8-23.4,7.5-32,16.3V56z
		 M464,361.7c0,21.1-17.2,38.3-38.3,38.3H54.3C33.2,400,16,382.8,16,361.6V360c0-22.1,17.9-40,40-40c4.4,0,8-3.6,8-8V64h352v248
		c0,4.4,3.6,8,8,8c22.1,0,40,17.9,40,40V361.7z M464,320.8c-8.6-8.8-19.8-14.5-32-16.3V16.8c18.6,3.8,32,20.2,32,39.2V320.8z"/>
	<path d="M392,112H160c-4.4,0-8,3.6-8,8v56H88c-4.4,0-8,3.6-8,8v160c0,4.4,3.6,8,8,8h192c4.4,0,8-3.6,8-8V240h56c4.4,0,8-3.6,8-8
		s-3.6-8-8-8H200c-4.4,0-8,3.6-8,8v40c0,4.4,3.6,8,8,8s8-3.6,8-8v-32h64v96h-64v-32c0-4.4-3.6-8-8-8s-8,3.6-8,8v32H96v-64h64
		c4.4,0,8-3.6,8-8s-3.6-8-8-8H96v-64h64c4.4,0,8-3.6,8-8v-56h104v64c0,4.4,3.6,8,8,8s8-3.6,8-8v-64h40.6c3.7,29,26.5,51.8,55.4,55.4
		V336h-64c-4.4,0-8,3.6-8,8s3.6,8,8,8h72c4.4,0,8-3.6,8-8V120C400,115.6,396.4,112,392,112z M344.7,128H384v39.3
		C363.9,163.8,348.2,148.1,344.7,128z"/>
</g>
</svg>
