<?xml version="1.0" encoding="utf-8"?>
<!-- Generator: Adobe Illustrator 22.1.0, SVG Export Plug-In . SVG Version: 6.00 Build 0)  -->
<svg version="1.1" id="Слой_1" xmlns="http://www.w3.org/2000/svg" xmlns:xlink="http://www.w3.org/1999/xlink" x="0px" y="0px"
	 viewBox="0 0 448 481.6" style="enable-background:new 0 0 448 481.6;" xml:space="preserve">
<g id="outline">
	<path d="M248,320c4.4,0,8-3.6,8-8v-16h88c4.4,0,8-3.6,8-8v-32c0-4.4-3.6-8-8-8H232V102.5c2.6,0.9,5.3,1.4,8,1.5h64
		c5.9,0,11.6-2.2,16-6.2c4.4,4,10.1,6.2,16,6.2h56c13.3,0,24-10.7,24-24V64c0-0.2-0.1-0.5-0.2-0.7c0-0.6-0.2-1.2-0.3-1.7
		c-0.1-0.4-0.3-0.8-0.5-1.2c-0.3-0.5-0.6-1-0.9-1.4c-0.3-0.3-0.5-0.6-0.8-0.9c-0.4-0.4-0.9-0.7-1.4-0.9c-0.4-0.2-0.7-0.4-1.1-0.6
		c-0.1-0.1-0.2-0.2-0.4-0.2l-184-56h-0.1l-0.1-0.1c-0.3-0.1-0.7-0.1-1-0.1c-0.2,0-0.4-0.1-0.7-0.1C224.2,0,224.1,0,224,0
		s-0.2,0-0.4,0c-0.2,0-0.4,0-0.7,0.1c-0.3,0-0.7,0.1-1,0.1l-0.1,0.1h-0.1l-184,56c-0.2,0-0.3,0.2-0.4,0.2c-0.4,0.2-0.8,0.4-1.1,0.6
		c-0.5,0.3-1,0.6-1.4,0.9c-0.3,0.3-0.6,0.6-0.8,0.9c-0.4,0.4-0.7,0.9-0.9,1.4c-0.2,0.4-0.3,0.8-0.5,1.2c-0.2,0.6-0.3,1.1-0.3,1.7
		C32.1,63.5,32,63.7,32,64v16c0,13.3,10.7,24,24,24h56c5.9,0,11.6-2.2,16-6.2c4.4,4,10.1,6.2,16,6.2h64c2.7,0,5.4-0.5,8-1.5V248H104
		c-4.4,0-8,3.6-8,8v32c0,4.4,3.6,8,8,8h88v16c0,4.4,3.6,8,8,8h16v128h-40c-4.4,0-8,3.6-8,8v24h16v-16h32v16h16v-16h32v16h16v-24
		c0-4.4-3.6-8-8-8h-40V320H248z M232,21.9L290.4,56H232V21.9z M216,21.9V56h-58.4L216,21.9z M304,88h-64c-4.4,0-8-3.6-8-8v-8h80v8
		C312,84.4,308.4,88,304,88z M400,80c0,4.4-3.6,8-8,8h-56c-4.4,0-8-3.6-8-8v-8h72V80z M322.2,56l-35-20.4l67,20.4H322.2z
		 M160.8,35.6l-35,20.4H93.8L160.8,35.6z M112,88H56c-4.4,0-8-3.6-8-8v-8h72v8C120,84.4,116.4,88,112,88z M208,88h-64
		c-4.4,0-8-3.6-8-8v-8h80v8C216,84.4,212.4,88,208,88z M112,264h224v16H112V264z M208,296h32v8h-32V296z"/>
	<path d="M160,344c0-13.3-10.7-24-24-24H48V208c0-13.3-10.7-24-24-24S0,194.7,0,208v128c0.1,14,9.2,26.3,22.6,30.4l-22.4,112
		l15.7,3.1L30.6,408h98.9l14.7,73.6l15.7-3.1l-22.1-110.6C150.2,367,160,356.6,160,344z M33.8,392l4.8-24h82.9l4.8,24H33.8z
		 M136,352H32c-8.8,0-16-7.2-16-16V208c0-4.4,3.6-8,8-8s8,3.6,8,8v120c0,4.4,3.6,8,8,8h96c4.4,0,8,3.6,8,8S140.4,352,136,352z"/>
	<path d="M448,336V208c0-13.3-10.7-24-24-24s-24,10.7-24,24v112h-88c-13.2,0-23.9,10.7-23.9,24c0,12.5,9.7,22.9,22.2,23.9
		l-22.1,110.6l15.7,3.1l14.7-73.5h98.9l14.7,73.6l15.7-3.1l-22.4-112C438.8,362.4,448,350,448,336z M321.8,392l4.8-24h82.9l4.8,24
		H321.8z M432,336c0,8.8-7.2,16-16,16H312c-4.4,0-8-3.6-8-8s3.6-8,8-8h96c4.4,0,8-3.6,8-8V208c0-4.4,3.6-8,8-8s8,3.6,8,8V336z"/>
</g>
</svg>
