<?xml version="1.0" encoding="utf-8"?>
<!-- Generator: Adobe Illustrator 22.1.0, SVG Export Plug-In . SVG Version: 6.00 Build 0)  -->
<svg version="1.1" id="Слой_1" xmlns="http://www.w3.org/2000/svg" xmlns:xlink="http://www.w3.org/1999/xlink" x="0px" y="0px"
	 viewBox="0 0 512 512" enable-background="new 0 0 512 512" xml:space="preserve">
<title>039 - Creative</title>
<desc>Created with Sketch.</desc>
<g id="Page-1">
	<g id="_x30_39---Creative" transform="translate(0.000000, -1.000000)">
		<path id="Shape" d="M204.8,453.3c-9.4,0-17.1,7.6-17.1,17.1v25.6c0,9.4,7.6,17.1,17.1,17.1h102.4c9.4,0,17.1-7.6,17.1-17.1v-25.6
			c0-9.4-7.6-17.1-17.1-17.1H204.8z M204.8,495.9v-25.6h102.4v25.6H204.8z"/>
		<path id="Shape_1_" d="M12.4,160.4c-4.6,0.8-8.5,4-10,8.5c-6.3,18.5,0.1,43,16.3,62.4c7.3,8.9,16.4,16.1,26.7,21.2
			c-12.4-2-25.2,0.2-36.2,6.2c-4,2.5-6.4,6.9-6.1,11.7C4.2,290,19.5,310.2,42,322c11.4,6.1,24.1,9.4,37,9.6c1.3,0,2.6-0.2,3.8-0.2
			c-15.4,1.9-29.6,9.7-39.4,21.7c-2.5,3.8-2.9,8.7-0.9,12.8c8.6,17.6,30.4,30.4,55.7,32.7c2.7,0.2,5.3,0.3,7.9,0.3
			c7.8,0,15.6-1.1,23-3.3c-8.8,7.1-15.2,16.8-18.2,27.7c-1,4.6,0.5,9.4,3.9,12.5c10.9,8.7,24.6,13.3,38.6,12.8
			c8.6,0,17.1-1.4,25.3-3.9c15.9-4.6,29.8-14.3,39.7-27.6c6.6,0.9,13.3,1.3,20,1.6c0.2,0,0.3,0.1,0.5,0.1c0.2,0,0.2-0.1,0.3-0.1
			c4.5,0.2,9.1,0.3,13.7,0.4c0.2,0,0.4,0.1,0.7,0.1c0.8,0,1.6,0,2.4-0.1c0.8,0.1,1.6,0.1,2.4,0.1c0.2,0,0.4-0.1,0.7-0.1
			c11.5,0,23-0.7,34.5-2c9.9,13.3,23.8,23,39.7,27.6c8.2,2.6,16.7,3.9,25.3,3.9c14.1,0.5,27.8-4.1,38.8-12.9
			c3.4-3.2,4.8-7.9,3.7-12.5c-3.1-10.9-9.4-20.5-18.2-27.6c7.5,2.2,15.2,3.3,23,3.3c2.6,0,5.3-0.1,8-0.3
			c25.2-2.3,47.1-15.1,55.6-32.6c2-4.3,1.6-9.3-1.1-13.2c-9.7-11.8-23.5-19.4-38.6-21.3c1.1,0.1,2.2,0.2,3.3,0.2
			c12.9-0.2,25.6-3.5,37.1-9.6c22.5-11.8,37.7-32,38.9-51.5c0.3-4.7-2.1-9.1-6.1-11.6c-11.1-6.1-23.9-8.3-36.4-6.2
			c10.4-5.1,19.5-12.4,26.8-21.3c16.2-19.4,22.6-43.9,16.3-62.5c-1.6-4.5-5.4-7.7-10.1-8.4c-12.7-1.4-25.5,1.6-36.3,8.4
			c7.7-8.8,13.5-19.1,16.9-30.3c7.5-24.2,4.1-49.3-9-64c-3.2-3.4-7.9-4.8-12.5-3.8c-12.3,3.6-23,11.2-30.4,21.6
			c3.8-11,5.2-22.8,4.1-34.4c-2.2-25.2-15-47-32.6-55.5c-4.3-2.1-9.3-1.7-13.2,1.1c-9.9,8-16.8,19-19.7,31.4
			c-4.2-9.6-11-17.8-19.7-23.7c-17.2-11.9-37.9-13.6-51.4-4.1c-2.3,1.6-3.9,4-4.6,6.7c-4.1,15.9,4.7,34.7,22,46.6
			c9,6.4,19.7,10,30.7,10.2c5.6,0.1,11.1-1.1,16.1-3.5c2.7,1.8,5.4,3.8,8.1,5.9c13.9,10.7,26.2,23.3,36.4,37.5
			c8.5,11.8,15.6,24.6,21.2,38.1c18.9,45.6,18.9,96.8,0,142.4s-55.1,81.8-100.7,100.7c-3,1.2-6.1,2.3-9.1,3.3V180.2
			c0-0.1,0-0.3-0.1-0.4c0-0.1-0.1-0.4-0.1-0.6c-0.1-0.9-0.3-1.8-0.7-2.6c-0.1-0.1-0.1-0.2-0.1-0.3l-0.1-0.2l-44-81.5
			c-3.1-5.2-8.8-8.4-14.8-8.3c-6.1,0.1-11.7,3.4-14.7,8.7l-43.9,81.1l-0.1,0.2c-0.1,0.1-0.1,0.2-0.1,0.3c-0.4,0.8-0.6,1.7-0.7,2.6
			c0,0.2-0.1,0.4-0.1,0.6c0,0.2-0.1,0.3-0.1,0.4V395c-3.1-1-6.1-2-9.1-3.3c-45.7-18.8-82-55-100.8-100.7c-3.1-7.6-5.6-15.3-7.7-23.2
			c-0.1-0.5-0.2-0.9-0.3-1.3c-10.3-39.1-7.5-80.5,8-117.9c5.6-13.4,12.7-26.2,21.2-38c10.3-14.3,22.6-27,36.6-37.7
			c2.6-2.1,5.4-3.9,8.1-5.7c5,2.3,10.5,3.5,16,3.4c11-0.2,21.7-3.8,30.7-10.2c17.2-11.9,26.1-30.6,22-46.5c-0.7-2.7-2.3-5.1-4.6-6.7
			c-13.5-9.5-34.1-7.8-51.4,4.1c-8.7,5.9-15.5,14.1-19.7,23.7c-2.9-12.5-10-23.7-20.1-31.7c-3.8-2.6-8.7-2.9-12.8-0.9
			C94.8,10.9,82,32.7,79.7,57.9c-1.1,11.7,0.3,23.4,4.1,34.5c-7.4-10.5-18.2-18.1-30.5-21.7c-4.6-1-9.4,0.5-12.6,4
			c-12.9,14.6-16.3,39.7-8.8,63.9c3.4,11.2,9.2,21.5,16.9,30.2C38,162,25.2,159,12.4,160.4z M31.8,220.4c-10.8-11.7-16-27.5-14-43.4
			c15.1,0.9,29.1,8.1,38.6,19.8c-1.6,13.9-1.8,27.8-0.5,41.7C46.6,234.5,38.3,228.3,31.8,220.4z M20.4,272.1c14-5,29.4-3.9,42.5,3.1
			c2.1,7.6,4.7,15,7.7,22.3c2.4,5.8,5.1,11.4,8,16.9c-10-0.3-19.9-2.8-28.8-7.6C35.4,300.2,24.6,287.5,20.4,272.1z M491.6,272.1
			c-4.2,15.4-15,28.1-29.4,34.7c-8.9,4.7-18.7,7.3-28.8,7.6c2.9-5.5,5.6-11.1,8-16.9c3-7.2,5.5-14.7,7.7-22.2
			C462.1,268.3,477.6,267.1,491.6,272.1z M494.1,177c2,15.8-3.1,31.7-14,43.4c-6.5,7.9-14.8,14.1-24.2,18.2
			c1.3-13.9,1.1-27.9-0.5-41.8C465,185,479.1,177.8,494.1,177L494.1,177z M460.1,88c7.8,13.9,9.2,30.5,3.7,45.4
			c-3,10.1-8.5,19.2-15.9,26.6c-1.9-6.1-4-12.1-6.5-18c-2.9-6.9-6.1-13.6-9.7-20.2C435.8,107,446.2,94.7,460.1,88z M322.8,46.3
			c-9.3-5.5-15.2-15.5-15.5-26.3c10.3-3.5,21.6-1.5,30.1,5.2c9.3,5.5,15.2,15.5,15.5,26.3C342.6,55,331.3,53,322.8,46.3z
			 M381.3,61.8c-2.1-15.5,2.7-31.2,13.1-42.9c12.6,9.8,20.3,24.6,20.8,40.5c1.1,10.6-0.5,21.4-4.7,31.2
			C401.8,80.1,392,70.4,381.3,61.8z M411.7,347.4c15-1.6,29.9,3.2,41.1,13.3c-9.8,12.6-24.6,20.3-40.5,20.9
			c-10.3,1-20.6-0.5-30.2-4.3C393,368.3,402.9,358.4,411.7,347.4z M331.4,407.5c7.2-3,14.3-6.5,21.1-10.3
			c13.8,4.4,25.1,14.4,31.3,27.5c-13.9,7.8-30.5,9.2-45.4,3.7c-9.5-2.9-18.3-7.9-25.5-14.8C319.1,412,325.3,409.9,331.4,407.5z
			 M256,197.3c-27.4,0-38-11.4-41.6-17l13.6-25.4c17,10.9,38.8,10.9,55.9,0.1l13.7,25.3C294,185.8,283.3,197.3,256,197.3z
			 M255.8,103.1l19.9,36.7c-11.9,8.3-27.7,8.3-39.5-0.1L255.8,103.1z M213.3,202.9c5.2,3.5,11,6.2,17.1,8v63.2
			c0,4.7,3.8,8.5,8.5,8.5c4.7,0,8.5-3.8,8.5-8.5V214c2.7,0.2,5.5,0.3,8.5,0.3c3,0,5.8-0.1,8.5-0.3v111.3c0,4.7,3.8,8.5,8.5,8.5
			s8.5-3.8,8.5-8.5V210.8c6.1-1.8,11.8-4.4,17.1-8V399c-5.6,1-11.3,1.6-17.1,2v-41.7c0-4.7-3.8-8.5-8.5-8.5s-8.5,3.8-8.5,8.5v42.5
			c-2.7,0.1-5.3,0.1-8,0.1h-0.8c-2.8,0-5.5-0.1-8.3-0.1v-93.7c0-4.7-3.8-8.5-8.5-8.5c-4.7,0-8.5,3.8-8.5,8.5v92.9
			c-5.7-0.4-11.4-1.1-17.1-2V202.9z M199.2,413.5c-7.2,6.8-16,11.9-25.5,14.8c-14.9,5.5-31.6,4.2-45.4-3.6
			c6.2-13.1,17.5-23.1,31.3-27.5c6.8,3.8,13.9,7.3,21.1,10.3C186.7,410,192.9,412,199.2,413.5z M129.9,377.2
			c-9.6,3.8-19.9,5.3-30.2,4.3c-15.9-0.6-30.8-8.2-40.5-20.8c11.2-10,26.1-14.9,41.1-13.3C109,358.3,119,368.3,129.9,377.2z
			 M174.6,25.2c8.5-6.8,19.8-8.7,30.1-5.2c-0.3,10.8-6.2,20.8-15.5,26.3c-8.5,6.8-19.8,8.8-30.1,5.2
			C159.5,40.7,165.3,30.8,174.6,25.2z M96.7,59.4c0.6-15.9,8.2-30.8,20.8-40.5c10.4,11.7,15.2,27.4,13.1,42.9
			c-10.7,8.6-20.5,18.2-29.2,28.8C97.3,80.8,95.6,70.1,96.7,59.4z M51.9,88c13.9,6.7,24.3,19,28.5,33.8c-3.6,6.5-6.9,13.3-9.7,20.1
			c-2.5,5.9-4.6,12-6.5,18c-7.4-7.4-12.9-16.6-15.9-26.6C42.7,118.5,44.1,101.9,51.9,88z"/>
		<path id="Shape_2_" d="M102.4,222.9c0,4.7,3.8,8.5,8.5,8.5h25.6c4.7,0,8.5-3.8,8.5-8.5c0-4.7-3.8-8.5-8.5-8.5h-25.6
			C106.2,214.3,102.4,218.2,102.4,222.9z"/>
		<path id="Shape_3_" d="M409.6,222.9c0-4.7-3.8-8.5-8.5-8.5h-25.6c-4.7,0-8.5,3.8-8.5,8.5c0,4.7,3.8,8.5,8.5,8.5h25.6
			C405.8,231.4,409.6,227.6,409.6,222.9z"/>
		<path id="Shape_4_" d="M142.4,185c4.3,1.6,9.2-0.4,10.9-4.7c1.8-4.3-0.2-9.2-4.4-11.1l-15.8-6.5c-2.8-1.2-6-0.7-8.5,1.1
			c-2.4,1.9-3.7,4.9-3.3,7.9s2.4,5.6,5.2,6.8L142.4,185z"/>
		<path id="Shape_5_" d="M369.6,260.7c-2.8-1.3-6.1-0.9-8.6,1c-2.5,1.9-3.8,4.9-3.3,8c0.4,3.1,2.5,5.7,5.4,6.8l15.8,6.5
			c4.4,1.8,9.3-0.3,11.2-4.6s-0.3-9.3-4.6-11.2L369.6,260.7z"/>
		<path id="Shape_6_" d="M129.9,283.7c1.1,0,2.2-0.2,3.3-0.7l15.8-6.5c4.2-1.9,6.2-6.8,4.4-11.1c-1.8-4.3-6.6-6.4-10.9-4.7
			l-15.8,6.5c-3.8,1.6-5.9,5.6-5.1,9.6C122.3,280.8,125.8,283.7,129.9,283.7z"/>
		<path id="Shape_7_" d="M378.9,162.7l-15.8,6.5c-2.9,1.1-5,3.7-5.4,6.8c-0.4,3.1,0.8,6.1,3.3,8c2.5,1.9,5.8,2.2,8.6,1l15.8-6.5
			c4.4-1.8,6.4-6.8,4.6-11.2C388.2,163,383.2,160.9,378.9,162.7z"/>
		<path id="Shape_8_" d="M177.6,132.4l-18.1-18.1c-3.3-3.3-8.7-3.3-12.1,0c-3.3,3.3-3.3,8.7,0,12.1l18.1,18.1
			c3.3,3.2,8.7,3.2,12-0.1C180.7,141,180.8,135.7,177.6,132.4z"/>
		<path id="Shape_9_" d="M334.4,313.4l18.1,18.1c3.3,3.3,8.7,3.3,12.1,0c3.3-3.3,3.3-8.7,0-12.1l-18.1-18.1c-3.3-3.2-8.7-3.2-12,0.1
			C331.3,304.7,331.2,310,334.4,313.4z"/>
		<path id="Shape_10_" d="M153.4,334c2.3,0,4.4-0.9,6-2.5l18.1-18.1c3.2-3.3,3.2-8.7-0.1-12c-3.3-3.3-8.6-3.3-12-0.1l-18.1,18.1
			c-2.4,2.4-3.2,6.1-1.8,9.3C146.9,331.9,150,334,153.4,334z"/>
		<path id="Shape_11_" d="M352.5,114.3l-18.1,18.1c-2.2,2.1-3.1,5.3-2.3,8.3c0.8,3,3.1,5.3,6.1,6.1c3,0.8,6.2-0.1,8.3-2.3l18.1-18.1
			c3.3-3.3,3.3-8.7,0-12.1C361.3,110.9,355.9,110.9,352.5,114.3z"/>
	</g>
</g>
</svg>
