<?xml version="1.0" encoding="utf-8"?>
<!-- Generator: Adobe Illustrator 22.1.0, SVG Export Plug-In . SVG Version: 6.00 Build 0)  -->
<svg version="1.1" id="Capa_1" xmlns="http://www.w3.org/2000/svg" xmlns:xlink="http://www.w3.org/1999/xlink" x="0px" y="0px"
	 viewBox="0 0 512 512" style="enable-background:new 0 0 512 512;" xml:space="preserve">
<g>
	<g>
		<g>
			<path d="M504,304H344v-16h8c4.4,0,8-3.6,8-8s-3.6-8-8-8h-8v-8c0-17.7,14.3-32,32-32s32,14.3,32,32c0,4.4,3.6,8,8,8s8-3.6,8-8
				c0-26.5-21.5-48-48-48s-48,21.5-48,48v40H193.8c4-4.4,6.2-10.1,6.2-16v-48c0-4.4-3.6-8-8-8H72c-4.4,0-8,3.6-8,8v48
				c0,5.9,2.2,11.6,6.2,16H8c-4.4,0-8,3.6-8,8v192c0,4.4,3.6,8,8,8h496c4.4,0,8-3.6,8-8V312C512,307.6,508.4,304,504,304z M80,248
				h104v40c0,4.4-3.6,8-8,8H88c-4.4,0-8-3.6-8-8V248z M128,496H16v-96h112V496z M128,384H16v-64h24c0,4.4,3.6,8,8,8h48
				c4.4,0,8-3.6,8-8h24V384z M368,496H144V320h224V496z M496,496H384v-96h112V496z M496,384H384v-64h24c0,4.4,3.6,8,8,8h48
				c4.4,0,8-3.6,8-8h24V384z"/>
			<path d="M160,440h192c4.4,0,8-3.6,8-8v-80c0-4.4-3.6-8-8-8H160c-4.4,0-8,3.6-8,8v80C152,436.4,155.6,440,160,440z M168,360h176
				v64H168V360z"/>
			<path d="M304,464h-96c-4.4,0-8,3.6-8,8s3.6,8,8,8h96c4.4,0,8-3.6,8-8S308.4,464,304,464z"/>
			<path d="M88,120h336c4.4,0,8-3.6,8-8V8c0-4.4-3.6-8-8-8H88c-4.4,0-8,3.6-8,8v104C80,116.4,83.6,120,88,120z M264,16h152v88H264
				V16z M96,16h152v88H96V16z"/>
			<path d="M200,56h-64c-4.4,0-8,3.6-8,8s3.6,8,8,8h64c4.4,0,8-3.6,8-8S204.4,56,200,56z"/>
			<path d="M376,56h-64c-4.4,0-8,3.6-8,8s3.6,8,8,8h64c4.4,0,8-3.6,8-8S380.4,56,376,56z"/>
			<path d="M91.2,197.6c-6.6,3.8-10.9,10.8-11.2,18.4c0,4.4,3.6,8,8,8s8-3.6,8-8c0-1.7,0.8-2.6,4.8-5.6c6.6-3.8,10.9-10.8,11.2-18.4
				c-0.3-7.6-4.6-14.6-11.2-18.4c-4-3-4.8-3.9-4.8-5.6s0.8-2.6,4.8-5.6c6.6-3.8,10.9-10.8,11.2-18.4c0-4.4-3.6-8-8-8s-8,3.6-8,8
				c0,1.7-0.8,2.6-4.8,5.6c-6.6,3.8-10.9,10.8-11.2,18.4c0.3,7.6,4.6,14.6,11.2,18.4c4,3,4.8,3.9,4.8,5.6S95.2,194.6,91.2,197.6z"/>
			<path d="M140.8,162.4c6.6-3.8,10.9-10.8,11.2-18.4c0-4.4-3.6-8-8-8s-8,3.6-8,8c0,1.7-0.8,2.6-4.8,5.6
				c-6.6,3.8-10.9,10.8-11.2,18.4c0.3,7.6,4.6,14.6,11.2,18.4c4,3,4.8,3.9,4.8,5.6s-0.8,2.6-4.8,5.6c-6.6,3.8-10.9,10.8-11.2,18.4
				c0,4.4,3.6,8,8,8s8-3.6,8-8c0-1.7,0.8-2.6,4.8-5.6c6.6-3.8,10.9-10.8,11.2-18.4c-0.3-7.6-4.6-14.6-11.2-18.4
				c-4-3-4.8-3.9-4.8-5.6S136.8,165.4,140.8,162.4z"/>
			<path d="M180.8,162.4c6.6-3.8,10.9-10.8,11.2-18.4c0-4.4-3.6-8-8-8s-8,3.6-8,8c0,1.7-0.8,2.6-4.8,5.6
				c-6.6,3.8-10.9,10.8-11.2,18.4c0.3,7.6,4.6,14.6,11.2,18.4c4,3,4.8,3.9,4.8,5.6s-0.8,2.6-4.8,5.6c-6.6,3.8-10.9,10.8-11.2,18.4
				c0,4.4,3.6,8,8,8s8-3.6,8-8c0-1.7,0.8-2.6,4.8-5.6c6.6-3.8,10.9-10.8,11.2-18.4c-0.3-7.6-4.6-14.6-11.2-18.4
				c-4-3-4.8-3.9-4.8-5.6S176.8,165.4,180.8,162.4z"/>
		</g>
	</g>
</g>
</svg>
