<?xml version="1.0" encoding="utf-8"?>
<!-- Generator: Adobe Illustrator 22.1.0, SVG Export Plug-In . SVG Version: 6.00 Build 0)  -->
<svg version="1.1" id="Слой_1" xmlns="http://www.w3.org/2000/svg" xmlns:xlink="http://www.w3.org/1999/xlink" x="0px" y="0px"
	 viewBox="0 0 512 512" enable-background="new 0 0 512 512" xml:space="preserve">
<title>023 - Design on Computer</title>
<desc>Created with Sketch.</desc>
<g id="Page-1">
	<g id="_x30_23---Design-on-Computer">
		<path id="Shape" d="M486.4,0H25.6C11.5,0,0,11.5,0,25.6V384c0,14.1,11.5,25.6,25.6,25.6h162.1v34.1c-23.6,0-42.6,19.1-42.7,42.7
			v17.1c0,4.7,3.8,8.5,8.5,8.5h204.8c4.7,0,8.5-3.8,8.5-8.5v-17.1c0-23.6-19.1-42.6-42.7-42.7v-34.1h162.1
			c14.1,0,25.6-11.5,25.6-25.6V25.6C512,11.5,500.5,0,486.4,0z M17.1,25.6c0-4.7,3.8-8.5,8.5-8.5h460.8c4.7,0,8.5,3.8,8.5,8.5v298.7
			H17.1V25.6z M349.9,486.4v8.5H162.1v-8.5c0-14.1,11.5-25.6,25.6-25.6h136.5C338.4,460.8,349.9,472.3,349.9,486.4z M307.2,443.7
			H204.8v-34.1h102.4V443.7z M494.9,384c0,4.7-3.8,8.5-8.5,8.5H25.6c-4.7,0-8.5-3.8-8.5-8.5v-42.7h477.9V384z"/>
		<path id="Shape_1_" d="M238.9,375.5h34.1c4.7,0,8.5-3.8,8.5-8.5s-3.8-8.5-8.5-8.5h-34.1c-4.7,0-8.5,3.8-8.5,8.5
			S234.2,375.5,238.9,375.5z"/>
		<path id="Shape_2_" d="M452.3,426.7c-33,0-59.7,26.8-59.7,59.7v8.5c0,9.4,7.6,17.1,17.1,17.1h85.3c9.4,0,17.1-7.6,17.1-17.1v-8.5
			C512,453.4,485.2,426.7,452.3,426.7z M494.9,494.9h-85.3v-8.5c0-20.3,14.3-37.7,34.1-41.8v16.2c0,4.7,3.8,8.5,8.5,8.5
			s8.5-3.8,8.5-8.5v-16.2c19.9,4.1,34.1,21.5,34.1,41.8V494.9z"/>
		<path id="Shape_3_" d="M68.3,42.7c0-4.7-3.8-8.5-8.5-8.5H42.7c-4.7,0-8.5,3.8-8.5,8.5s3.8,8.5,8.5,8.5h17.1
			C64.4,51.2,68.3,47.4,68.3,42.7z"/>
		<path id="Shape_4_" d="M93.9,51.2h51.2c4.7,0,8.5-3.8,8.5-8.5s-3.8-8.5-8.5-8.5H93.9c-4.7,0-8.5,3.8-8.5,8.5S89.2,51.2,93.9,51.2z
			"/>
		<path id="Shape_5_" d="M435.2,85.3H76.8c-9.4,0-17.1,7.6-17.1,17.1v51.2c0,9.4,7.6,17.1,17.1,17.1h358.4c9.4,0,17.1-7.6,17.1-17.1
			v-51.2C452.3,93,444.6,85.3,435.2,85.3z M435.2,153.6H384v-17.1c0-4.7-3.8-8.5-8.5-8.5c-4.7,0-8.5,3.8-8.5,8.5v17.1h-17.1v-17.1
			c0-4.7-3.8-8.5-8.5-8.5s-8.5,3.8-8.5,8.5v17.1h-17.1v-17.1c0-4.7-3.8-8.5-8.5-8.5s-8.5,3.8-8.5,8.5v17.1h-17.1v-17.1
			c0-4.7-3.8-8.5-8.5-8.5s-8.5,3.8-8.5,8.5v17.1h-17.1v-17.1c0-4.7-3.8-8.5-8.5-8.5c-4.7,0-8.5,3.8-8.5,8.5v17.1h-17.1v-17.1
			c0-4.7-3.8-8.5-8.5-8.5c-4.7,0-8.5,3.8-8.5,8.5v17.1h-17.1v-17.1c0-4.7-3.8-8.5-8.5-8.5c-4.7,0-8.5,3.8-8.5,8.5v17.1h-17.1v-17.1
			c0-4.7-3.8-8.5-8.5-8.5s-8.5,3.8-8.5,8.5v17.1h-17.1v-17.1c0-4.7-3.8-8.5-8.5-8.5c-4.7,0-8.5,3.8-8.5,8.5v17.1H76.8v-51.2h358.4
			V153.6z"/>
		<path id="Shape_6_" d="M409.6,196.3H162.1c-0.1,0-0.2,0.1-0.4,0.1c-0.6,0-1.2,0.1-1.9,0.2l-85.6,23.4c-8.6,2.3-14.5,10.1-14.5,19
			s6,16.7,14.5,19l85.6,23.4c0.7,0.2,1.5,0.3,2.3,0.3h247.5c23.6,0,42.7-19.1,42.7-42.7S433.2,196.3,409.6,196.3z M390.9,230.4
			H264.5c-4.7,0-8.5,3.8-8.5,8.5c0,4.7,3.8,8.5,8.5,8.5h126.4c-3.2,7.7-9.3,13.9-17.1,17.1H187.7c3.9-5,6.5-10.9,7.7-17.1h26.5
			c4.7,0,8.5-3.8,8.5-8.5c0-4.7-3.8-8.5-8.5-8.5h-26.5c-1.2-6.2-3.8-12.1-7.7-17.1h186.1C381.6,216.5,387.7,222.7,390.9,230.4z
			 M161.6,213.8c10.6,3.8,17.6,13.9,17.6,25.1c0,11.3-7,21.3-17.6,25.1l-29.1-7.9c5.4-10.8,5.4-23.6,0-34.4L161.6,213.8z
			 M76.8,238.9c0-1.2,0.8-2.2,1.9-2.6l37.1-10.1c2.2,3.9,3.4,8.2,3.6,12.7c-0.2,4.4-1.5,8.8-3.6,12.7l-37.1-10.1
			C77.6,241.2,76.8,240.1,76.8,238.9z M409.6,264.5h-8.5c11.4-15.2,11.4-36,0-51.2h8.5c14.1,0,25.6,11.5,25.6,25.6
			C435.2,253.1,423.7,264.5,409.6,264.5z"/>
		<circle id="Oval" cx="409.6" cy="128" r="8.5"/>
	</g>
</g>
</svg>
