<?xml version="1.0" encoding="utf-8"?>
<!-- Generator: Adobe Illustrator 22.1.0, SVG Export Plug-In . SVG Version: 6.00 Build 0)  -->
<svg version="1.1" id="Layer_1" xmlns="http://www.w3.org/2000/svg" xmlns:xlink="http://www.w3.org/1999/xlink" x="0px" y="0px"
	 viewBox="0 0 492 385.2" style="enable-background:new 0 0 492 385.2;" xml:space="preserve">
<path d="M208.4,115.9c-5.5,3.9-10.1,8.7-13.8,14.3c-1.8,2.8-1,6.5,1.7,8.3s6.5,1,8.3-1.7l0,0c2.8-4.3,6.4-8.1,10.7-11.1
	c2.7-1.9,3.3-5.7,1.4-8.4C214.8,114.7,211.1,114,208.4,115.9L208.4,115.9z"/>
<path d="M99.7,373.2h-44V98.4c0-0.1,0-0.2,0-0.3c0-47.5,36.6-86.1,81.6-86.1c43.3,0,78.7,35.7,81.4,80.6
	c-26.6,3.2-46.7,25.7-46.7,52.5v9.4c0,3.3,2.7,6,6,6h26.7c2.7,9.6,11.2,16.7,21.3,16.7s18.6-7.1,21.3-16.7h24.5c3.3,0,6-2.7,6-6
	v-9.4c0-26.9-20.3-49.5-47-52.5C228.1,41,187.2,0,137.4,0C85.9,0,44.1,43.7,43.8,97.5c0,0.1,0,0.3,0,0.4v275.3H6c-3.3,0-6,2.7-6,6
	s2.7,6,6,6h93.8c3.3,0,6-2.7,6-6S103.1,373.2,99.7,373.2L99.7,373.2z M226.1,165.2c-3.4-0.1-6.5-1.8-8.3-4.7h16.6
	C232.6,163.4,229.5,165.1,226.1,165.2z M265.9,145.1v3.4h-81.8v-3.4c0-22.6,18.3-40.9,40.9-40.9S265.9,122.5,265.9,145.1z"/>
<path d="M463.7,280.5v-39.7c-0.1-13.9-11.5-25.2-25.5-25.1H328.4c-6.8,0-13.2,2.6-18,7.4c-0.5,0.5-1,1-1.4,1.5c-4.9-5.7-12-9-19.5-9
	H179.1c-13.9-0.1-25.3,11.1-25.5,25.1v39.8c-14.9,1.3-26.3,13.7-26.5,28.7v69.9c0,3.3,2.7,6,6,6h46.5c3.3,0,6-2.7,6-6v-8l247.8,0.1
	v7.9c0,3.3,2.7,6,6,6H486c3.3,0,6-2.7,6-6v-69.9C491.9,293.6,479.3,280.9,463.7,280.5z M318.9,231.6c2.5-2.5,5.9-3.9,9.5-3.9h109.8
	c7.3-0.1,13.3,5.7,13.5,13.1v41.8c-10.9,4.3-18.1,14.9-18.2,26.6v2.3l-118.5,0l0-70.2C315,237.8,316.4,234.2,318.9,231.6
	L318.9,231.6z M179.1,227.7h110.4c7.3-0.1,13.3,5.7,13.5,13.1l0,70.8l-117.3,0v-2.3c-0.1-12.5-8.2-23.5-20.1-27.3v-41.1
	C165.8,233.5,171.8,227.6,179.1,227.7L179.1,227.7z M173.7,373.2h-34.5v-63.9c0.3-9.5,8.2-17,17.7-16.8c9.2,0.3,16.5,7.6,16.8,16.8
	V373.2z M185.7,359.2v-35.7l123.3,0h0l124.5,0v35.7L185.7,359.2z M480,373.2h-34.5v-63.9c0.3-9.5,8.2-17.1,17.7-16.8
	c9.2,0.2,16.6,7.6,16.8,16.8V373.2z"/>
</svg>
