<svg height="496pt" viewBox="0 0 496 496" width="496pt" xmlns="http://www.w3.org/2000/svg"><path d="m496 211.3125v-45.976562l-28-37.335938h-20v56h-32v-56h-20l-28 37.335938v45.976562l32 32v137.375l-32 32v45.976562l28 37.335938h20v-56h32v56h20l28-37.335938v-45.976562l-32-32v-137.375zm-16 208v34.023438l-16 21.328124v-50.664062h-64v50.664062l-16-21.328124v-34.023438l32-32v-150.625l-32-32v-34.023438l16-21.328124v50.664062h64v-50.664062l16 21.328124v34.023438l-32 32v150.625zm0 0"/><path d="m309.574219 351.160156-85.574219-21.398437v-17.914063c17.574219-13.246094 29.550781-33.503906 31.632812-56.617187 18.414063-3.582031 32.367188-19.789063 32.367188-39.230469v-72c0-53.511719-37.742188-98.320312-88-109.34375v-10.65625c0-13.230469-10.769531-24-24-24s-24 10.769531-24 24v10.679688c-39.808594 8.734374-71.785156 38.632812-83.34375 77.320312h-36.65625c-13.230469 0-24 10.769531-24 24s10.769531 24 24 24h32v56c0 19.441406 13.953125 35.648438 32.367188 39.230469 2.082031 23.121093 14.066406 43.371093 31.632812 56.617187v17.914063l-85.574219 21.398437c-24.976562 6.230469-42.425781 28.566406-42.425781 54.320313v90.519531h352v-90.519531c0-25.753907-17.449219-48.089844-42.425781-54.320313zm-37.574219 65.671875v63.167969h-88v-44.152344l40-32.007812v-11.839844h12.527344l22.242187-37.0625 39.191407 9.796875-13.695313 17.113281c-7.90625 9.894532-12.265625 22.320313-12.265625 34.984375zm-204.265625-34.984375-13.695313-17.113281 39.191407-9.796875 22.242187 37.0625h12.527344v11.839844l40 32.007812v44.152344h-88v-63.167969c0-12.664062-4.359375-25.089843-12.265625-34.984375zm174.808594-30.96875-15.070313 25.121094h-19.472656v20.160156l-24 19.191406v-28.449218l34.9375-41.917969zm-130.542969-190.878906h37.121094c-10.617188 8.519531-23.503906 13.984375-37.121094 15.527344zm64-107.703125 5.480469 6.390625c20.519531 23.945312 32.40625 53.984375 34.167969 85.3125h-79.289063c1.761719-31.328125 13.648437-61.367188 34.167969-85.3125zm-4.3125 107.703125h17.433594c-9.609375 7.710938-21.097656 12.824219-33.28125 14.886719 5.847656-4.261719 11.175781-9.238281 15.847656-14.886719zm40 0h17.433594c-9.609375 7.710938-21.097656 12.824219-33.28125 14.886719 5.847656-4.261719 11.175781-9.238281 15.847656-14.886719zm44.3125 78.527344v-45.046875c9.289062 3.3125 16 12.113281 16 22.527343 0 10.417969-6.710938 19.207032-16 22.519532zm16-54.320313c-4.671875-3.535156-10.054688-6.183593-16-7.390625v-16.816406h16zm0-40.207031h-40.359375c-1.738281-34.472656-14.5625-67.535156-36.753906-94.113281 43.921875 8.800781 77.113281 47.640625 77.113281 94.113281zm-104-120c0-4.414062 3.585938-8 8-8s8 3.585938 8 8v8.40625c-2.65625-.191406-5.296875-.40625-8-.40625-2.695312 0-5.351562.144531-8 .335938zm-10.886719 25.886719c-22.191406 26.578125-35.015625 59.640625-36.753906 94.113281h-40.359375c0-46.472656 33.191406-85.3125 77.113281-94.113281zm-133.113281 86.113281c0-4.414062 3.585938-8 8-8h33.144531c-.753906 5.222656-1.144531 10.566406-1.144531 16h-32c-4.414062 0-8-3.585938-8-8zm72 24v16.808594c-5.945312 1.214844-11.328125 3.855468-16 7.390625v-24.199219zm-16 56c0-10.414062 6.710938-19.214844 16-22.527344v45.046875c-9.289062-3.304687-16-12.105469-16-22.519531zm32 32v-56.472656c11.214844-1.039063 22.078125-4.175782 32-9.238282v9.710938c14.03125 0 27.734375-3.449219 40-9.71875v9.71875c20.535156 0 40.375-7.328125 56-20.175781v76.175781c0 35.289062-28.710938 64-64 64s-64-28.710938-64-64zm64 80c11.375 0 22.191406-2.425781 32-6.726562v11.824218l-32 38.398438-32-38.398438v-11.824218c9.808594 4.300781 20.625 6.726562 32 6.726562zm-42.9375 16.976562 34.9375 41.925782v28.449218l-24-19.191406v-20.160156h-19.472656l-15.070313-25.121094zm-117.0625 60.503907c0-15.257813 8.648438-28.738281 21.761719-35.464844l17.46875 21.839844c5.65625 7.054687 8.769531 15.9375 8.769531 24.976562v63.167969h-48zm320 74.519531h-48v-63.167969c0-9.046875 3.113281-17.921875 8.769531-24.984375l17.46875-21.839844c13.113281 6.726563 21.761719 20.207032 21.761719 35.464844zm0 0"/><path d="m224 208c0 4.417969-3.582031 8-8 8s-8-3.582031-8-8 3.582031-8 8-8 8 3.582031 8 8zm0 0"/><path d="m144 208c0 4.417969-3.582031 8-8 8s-8-3.582031-8-8 3.582031-8 8-8 8 3.582031 8 8zm0 0"/><path d="m176 288c17.648438 0 32-14.351562 32-32h-16c0 8.824219-7.175781 16-16 16s-16-7.175781-16-16h-16c0 17.648438 14.351562 32 32 32zm0 0"/></svg>