<?xml version="1.0" encoding="utf-8"?>
<!-- Generator: Adobe Illustrator 22.1.0, SVG Export Plug-In . SVG Version: 6.00 Build 0)  -->
<svg version="1.1" id="Слой_1" xmlns="http://www.w3.org/2000/svg" xmlns:xlink="http://www.w3.org/1999/xlink" x="0px" y="0px"
	 viewBox="0 0 230.9 158.2" enable-background="new 0 0 230.9 158.2" xml:space="preserve">
<g>
	<path fill="#181E2A" d="M40,119.1l-3.7,0l0-22.1l3.7,0h13.8c6.8,0,13-1.7,18.7-5c5.7-3.3,10.2-7.8,13.5-13.5c3.3-5.7,5-11.9,5-18.7
		c0-6.8-1.7-13-5-18.7c-3.3-5.7-7.8-10.2-13.5-13.5c-5.7-3.3-11.9-5-18.7-5H40c-0.6,0-1,0.2-1.4,0.6c-0.4,0.4-0.6,0.9-0.6,1.4v1.3
		l-0.1,12.6l-3.7,0H19.5l-3.6,0l0-3.6V4.2V0.5h3.6h34.3c10.8,0,20.7,2.7,29.7,8C92.5,13.8,99.7,21,105,30.1c5.3,9.1,8,19,8,29.7
		c0,10.8-2.7,20.7-8,29.7c-5.3,9.1-12.5,16.2-21.6,21.6c-9.1,5.3-19,8-29.7,8H40L40,119.1z"/>
	<path fill="#181E2A" d="M141.2,50c5.3,1.4,10.2,3.1,14.7,4.8c4.5,1.8,8.4,3.9,11.7,6.5c3.3,2.6,5.8,5.6,7.7,9.2
		c1.8,3.6,2.7,7.8,2.7,12.7v0.5c0,5.3-1.1,10.2-3.2,14.7c-2.2,4.4-5.2,8.2-9,11.4c-3.8,3.2-8.3,5.6-13.5,7.3
		c-5.2,1.7-10.8,2.6-16.9,2.6c-5.7,0-11.1-0.7-16.2-2.1c-5.2-1.4-9.9-3.2-14.1-5.5c-4.2-2.2-7.9-4.8-11.1-7.7
		c-3.2-2.9-5.6-5.8-7.2-8.9l19.5-12.3c2.1,2.3,4.2,4.4,6.3,6.2c2.1,1.8,4.3,3.4,6.7,4.7c2.3,1.3,4.9,2.2,7.7,2.9
		c2.8,0.7,5.8,1,9.2,1c2.1,0,4.2-0.2,6.4-0.7c2.2-0.4,4.1-1.2,5.9-2.2c1.8-1,3.2-2.2,4.3-3.7c1.1-1.5,1.7-3.4,1.7-5.6
		c0-1.6-0.4-3.1-1.2-4.5c-0.8-1.4-2.1-2.9-4-4.2c-1.9-1.4-4.4-2.7-7.7-4c-3.2-1.3-7.3-2.5-12.2-3.7c-6-1.4-11.4-3.1-16.2-4.9
		c-4.8-1.8-8.8-4.1-12.2-6.7c-3.3-2.6-5.9-5.8-7.7-9.4c-1.8-3.7-2.7-8-2.7-13c0-5.4,1-10.4,3.1-14.8c2.1-4.4,4.9-8.1,8.6-11.1
		c3.7-3,8-5.3,12.9-6.9c4.9-1.6,10.2-2.4,15.9-2.4c5.9,0,11.2,0.7,16,2c4.8,1.3,9.1,3,12.8,5.1c3.8,2.1,7.1,4.4,9.9,7
		c2.8,2.6,5.2,5.1,7.1,7.6L157.9,34c-4.8-4.6-9.3-7.7-13.6-9.6c-4.3-1.8-8.7-2.7-13.4-2.7c-2.9,0-5.4,0.4-7.4,1.1
		c-2.1,0.7-3.7,1.6-5.1,2.7c-1.3,1.1-2.4,2.2-3.1,3.6c-0.7,1.3-1.1,2.6-1.1,3.8c0,2.2,0.6,4.1,1.7,5.7c1.2,1.6,2.9,3.1,5.2,4.4
		c2.3,1.3,5.1,2.6,8.5,3.7C133,47.8,136.9,48.9,141.2,50L141.2,50z"/>
	<polygon fill="#181E2A" points="171.5,90.5 171.7,0.2 195.2,0.2 195,90.5 171.5,90.5 	"/>
	<polygon fill="#181E2A" points="179.3,95.8 230.8,95.8 230.8,119.2 192.3,119.2 179.3,95.8 	"/>
	<polygon fill="#181E2A" points="218.3,1.5 215.2,1.5 215.2,11.1 213.9,11.1 213.9,1.5 210.8,1.5 210.8,0.4 218.3,0.4 218.3,1.5 	
		"/>
	<path fill="#181E2A" d="M230.9,11.1h-1.2V3.9c0-0.6,0-1.3,0.1-2.1h0c-0.1,0.5-0.2,0.8-0.3,1l-3.7,8.3h-0.6l-3.7-8.2
		c-0.1-0.2-0.2-0.6-0.3-1.1h0c0,0.4,0.1,1.1,0.1,2.1v7.2H220V0.4h1.7l3.3,7.5c0.3,0.6,0.4,1,0.5,1.3h0c0.2-0.6,0.4-1,0.5-1.3
		l3.4-7.5h1.6V11.1L230.9,11.1z"/>
	<polygon fill-rule="evenodd" clip-rule="evenodd" fill="#FFCC00" points="0,81.1 0,103.2 30.9,92 30.9,70.3 0,81.1 	"/>
	<polygon fill-rule="evenodd" clip-rule="evenodd" fill="#FFCC00" points="0,54 0,76 30.9,64.8 30.9,43.1 0,54 	"/>
	<path fill="#181E2A" d="M13,146.2c-0.7-0.8-1.5-1.4-2.3-1.7c-0.8-0.4-1.7-0.6-2.7-0.6c-0.8,0-1.6,0.2-2.3,0.5
		c-0.8,0.3-1.4,0.8-2,1.3c-0.6,0.6-1,1.3-1.3,2c-0.3,0.7-0.4,1.6-0.4,2.4c0,0.7,0.1,1.3,0.3,1.9c0.2,0.6,0.4,1.1,0.8,1.6
		c0.6,0.9,1.4,1.5,2.2,2c0.9,0.5,1.8,0.7,2.9,0.7c1,0,1.9-0.2,2.7-0.6c0.8-0.4,1.6-1,2.3-1.8v2.4c-0.8,0.5-1.6,1-2.4,1.2
		c-0.9,0.3-1.8,0.4-2.7,0.4c-0.8,0-1.6-0.1-2.3-0.4s-1.5-0.6-2.1-1c-1.1-0.8-1.9-1.7-2.5-2.8c-0.6-1.1-0.9-2.3-0.9-3.7
		c0-1.2,0.2-2.2,0.6-3.2c0.4-1,1-1.8,1.8-2.6c0.8-0.7,1.6-1.3,2.6-1.7c0.9-0.4,2-0.6,3.1-0.6c0.9,0,1.7,0.1,2.5,0.4
		c0.8,0.3,1.6,0.7,2.4,1.2V146.2L13,146.2z"/>
	<path fill="#181E2A" d="M29.7,156.4c0.8,0,1.6-0.2,2.4-0.5c0.7-0.3,1.4-0.8,2-1.4c0.6-0.6,1-1.3,1.4-2c0.3-0.7,0.5-1.5,0.5-2.4
		c0-0.8-0.2-1.6-0.5-2.4s-0.8-1.4-1.4-2c-0.6-0.6-1.3-1-2-1.3c-0.7-0.3-1.5-0.5-2.4-0.5c-0.8,0-1.6,0.2-2.4,0.5
		c-0.8,0.3-1.4,0.8-2,1.3c-0.6,0.6-1,1.3-1.4,2c-0.3,0.8-0.5,1.6-0.5,2.4c0,0.8,0.2,1.6,0.5,2.4c0.3,0.7,0.8,1.4,1.4,2
		c0.6,0.6,1.3,1.1,2,1.4C28.1,156.2,28.9,156.4,29.7,156.4L29.7,156.4z M37.8,150.2c0,1.1-0.2,2.1-0.6,3c-0.4,1-1,1.8-1.7,2.5
		c-0.8,0.7-1.6,1.3-2.6,1.7c-1,0.4-2,0.6-3.1,0.6c-1.1,0-2.1-0.2-3.1-0.6c-1-0.4-1.9-1-2.6-1.7c-0.8-0.7-1.4-1.6-1.8-2.6
		c-0.4-1-0.6-2-0.6-3c0-1.1,0.2-2.1,0.6-3c0.4-1,1-1.8,1.8-2.6c0.8-0.7,1.6-1.3,2.6-1.7c1-0.4,2-0.6,3.1-0.6c1.1,0,2.1,0.2,3.1,0.6
		c1,0.4,1.9,1,2.6,1.7c0.8,0.7,1.3,1.6,1.7,2.5C37.6,148.1,37.8,149.1,37.8,150.2L37.8,150.2z"/>
	<polygon fill="#181E2A" points="47,157.7 47,142 58.1,154 58.1,142.6 59.8,142.6 59.8,158.2 48.7,146.3 48.7,157.7 47,157.7 	"/>
	<path fill="#181E2A" d="M75.2,149.3c1,0.4,1.7,1,2.2,1.7c0.5,0.7,0.8,1.5,0.8,2.5c0,1.4-0.4,2.5-1.3,3.3c-0.9,0.8-2.1,1.3-3.5,1.3
		c-1.2,0-2.2-0.3-3-0.9c-0.8-0.6-1.3-1.5-1.6-2.6l1.6-0.8c0.2,0.9,0.6,1.6,1.1,2.1c0.5,0.5,1.1,0.7,1.9,0.7c0.9,0,1.6-0.3,2.2-0.8
		c0.6-0.5,0.8-1.2,0.8-2c0-0.7-0.2-1.3-0.6-1.8c-0.4-0.5-1-0.9-1.8-1.3l-1.8-0.8c-1-0.4-1.8-1-2.2-1.6c-0.5-0.7-0.7-1.4-0.7-2.4
		c0-1.1,0.4-2,1.2-2.7c0.8-0.7,1.8-1,3.1-1c0.9,0,1.7,0.2,2.4,0.6c0.7,0.4,1.2,1,1.6,1.7l-1.5,0.9c-0.3-0.6-0.7-1-1.1-1.3
		c-0.4-0.3-0.9-0.4-1.4-0.4c-0.7,0-1.2,0.2-1.7,0.6c-0.4,0.4-0.6,0.9-0.6,1.6c0,0.5,0.2,1,0.5,1.4c0.3,0.4,0.8,0.7,1.5,1L75.2,149.3
		L75.2,149.3z"/>
	<polygon fill="#181E2A" points="89.5,157.7 89.5,144.3 85.2,144.3 85.2,142.6 95.6,142.6 95.6,144.3 91.3,144.3 91.3,157.7 
		89.5,157.7 	"/>
	<path fill="#181E2A" d="M103.8,157.7v-15.1h3.6c1,0,1.8,0.1,2.2,0.2c0.5,0.1,0.9,0.3,1.3,0.6c0.4,0.3,0.8,0.8,1,1.4
		c0.3,0.6,0.4,1.2,0.4,1.9c0,1.2-0.3,2.2-1,2.8c-0.7,0.6-1.7,1-3,1h-0.3l5.8,7.2h-2.3l-5.5-7.2h-0.3v7.2H103.8L103.8,157.7z
		 M105.6,144.1v5h1.4c1.4,0,2.4-0.2,2.8-0.5c0.5-0.4,0.7-1,0.7-1.9c0-1-0.2-1.6-0.7-2c-0.5-0.4-1.4-0.6-2.8-0.6H105.6L105.6,144.1z"
		/>
	<path fill="#181E2A" d="M121.4,142.6h1.8v9.4c0,1.5,0.3,2.6,1,3.4c0.7,0.7,1.7,1.1,3.1,1.1c1.4,0,2.4-0.4,3.1-1.1
		c0.7-0.7,1-1.8,1-3.4v-9.4h1.8v9.4c0,2-0.5,3.6-1.5,4.6c-1,1-2.4,1.5-4.4,1.5c-2,0-3.4-0.5-4.4-1.5c-1-1-1.5-2.5-1.5-4.6V142.6
		L121.4,142.6z"/>
	<path fill="#181E2A" d="M155.2,146.2c-0.7-0.8-1.5-1.4-2.3-1.7c-0.8-0.4-1.7-0.6-2.7-0.6c-0.8,0-1.6,0.2-2.3,0.5
		c-0.8,0.3-1.4,0.8-2,1.3c-0.6,0.6-1,1.3-1.3,2c-0.3,0.7-0.4,1.6-0.4,2.4c0,0.7,0.1,1.3,0.3,1.9c0.2,0.6,0.4,1.1,0.8,1.6
		c0.6,0.9,1.4,1.5,2.2,2c0.9,0.5,1.8,0.7,2.9,0.7c1,0,1.9-0.2,2.7-0.6c0.8-0.4,1.6-1,2.3-1.8v2.4c-0.8,0.5-1.6,1-2.4,1.2
		c-0.9,0.3-1.8,0.4-2.7,0.4c-0.8,0-1.6-0.1-2.3-0.4c-0.8-0.2-1.5-0.6-2.1-1c-1.1-0.8-1.9-1.7-2.5-2.8c-0.6-1.1-0.9-2.3-0.9-3.7
		c0-1.2,0.2-2.2,0.6-3.2c0.4-1,1-1.8,1.8-2.6c0.8-0.7,1.6-1.3,2.6-1.7c0.9-0.4,2-0.6,3.1-0.6c0.9,0,1.7,0.1,2.5,0.4
		c0.8,0.3,1.6,0.7,2.4,1.2V146.2L155.2,146.2z"/>
	<polygon fill="#181E2A" points="167.2,157.7 167.2,144.3 162.9,144.3 162.9,142.6 173.3,142.6 173.3,144.3 169,144.3 169,157.7 
		167.2,157.7 	"/>
	<polygon fill="#181E2A" points="181.5,157.7 181.5,142.6 183.3,142.6 183.3,157.7 181.5,157.7 	"/>
	<path fill="#181E2A" d="M200.6,156.4c0.8,0,1.6-0.2,2.4-0.5c0.7-0.3,1.4-0.8,2-1.4c0.6-0.6,1-1.3,1.4-2c0.3-0.7,0.5-1.5,0.5-2.4
		c0-0.8-0.2-1.6-0.5-2.4c-0.3-0.8-0.8-1.4-1.4-2c-0.6-0.6-1.3-1-2-1.3c-0.7-0.3-1.5-0.5-2.4-0.5c-0.8,0-1.6,0.2-2.4,0.5
		c-0.8,0.3-1.4,0.8-2,1.3c-0.6,0.6-1,1.3-1.4,2c-0.3,0.8-0.5,1.6-0.5,2.4c0,0.8,0.2,1.6,0.5,2.4c0.3,0.7,0.8,1.4,1.4,2
		c0.6,0.6,1.3,1.1,2,1.4C199,156.2,199.8,156.4,200.6,156.4L200.6,156.4z M208.7,150.2c0,1.1-0.2,2.1-0.6,3c-0.4,1-1,1.8-1.7,2.5
		c-0.8,0.7-1.6,1.3-2.6,1.7c-1,0.4-2,0.6-3.1,0.6c-1.1,0-2.1-0.2-3.1-0.6c-1-0.4-1.9-1-2.6-1.7c-0.8-0.7-1.4-1.6-1.8-2.6
		c-0.4-1-0.6-2-0.6-3c0-1.1,0.2-2.1,0.6-3c0.4-1,1-1.8,1.8-2.6c0.8-0.7,1.6-1.3,2.6-1.7c1-0.4,2-0.6,3.1-0.6c1.1,0,2.1,0.2,3.1,0.6
		c1,0.4,1.9,1,2.6,1.7c0.8,0.7,1.3,1.6,1.7,2.5C208.5,148.1,208.7,149.1,208.7,150.2L208.7,150.2z"/>
	<polygon fill="#181E2A" points="217.9,157.7 217.9,142 229,154 229,142.6 230.7,142.6 230.7,158.2 219.7,146.3 219.7,157.7 
		217.9,157.7 	"/>
	<polygon fill-rule="evenodd" clip-rule="evenodd" fill="#FFCC00" points="0,109 0,131 30.9,119.9 30.9,98.1 0,109 	"/>
</g>
</svg>
