<svg xmlns="http://www.w3.org/2000/svg" xmlns:xlink="http://www.w3.org/1999/xlink"><symbol id="bathtub" viewBox="0 0 496 464">
<path d="M488,232H64V40c0-13.3,10.7-24,24-24h40c13.3,0,24,10.7,24,24v32h-32c-13.3,0-24,10.7-24,24v16c0,4.4,3.6,8,8,8h112
	c4.4,0,8-3.6,8-8V96c0-13.3-10.7-24-24-24h-32V40c0-22.1-17.9-40-40-40H88C65.9,0,48,17.9,48,40v192H8c-4.4,0-8,3.6-8,8v32
	c0,4.4,3.6,8,8,8h8v112c0,19,13.4,35.4,32,39.2V456c0,4.4,3.6,8,8,8h32c4.4,0,8-3.6,8-8v-24h304v24c0,4.4,3.6,8,8,8h32
	c4.4,0,8-3.6,8-8v-24.8c18.6-3.8,32-20.2,32-39.2V280h8c4.4,0,8-3.6,8-8v-32C496,235.6,492.4,232,488,232z M200,88c4.4,0,8,3.6,8,8
	v8h-96v-8c0-4.4,3.6-8,8-8H200z M80,448H64v-16h16V448z M432,448h-16v-16h16V448z M464,392c0,13.3-10.7,24-24,24H56
	c-13.3,0-24-10.7-24-24V280h432V392z M480,264H16v-16h464V264z"/>
<path d="M344,320h56c4.4,0,8-3.6,8-8s-3.6-8-8-8h-56c-4.4,0-8,3.6-8,8S339.6,320,344,320z"/>
<path d="M424,320h8c4.4,0,8-3.6,8-8s-3.6-8-8-8h-8c-4.4,0-8,3.6-8,8S419.6,320,424,320z"/>
<path d="M168,136c0-4.4-3.6-8-8-8s-8,3.6-8,8v24c0,4.4,3.6,8,8,8s8-3.6,8-8V136z"/>
<path d="M160,176c-4.4,0-8,3.6-8,8v8c0,4.4,3.6,8,8,8s8-3.6,8-8v-8C168,179.6,164.4,176,160,176z"/>
<path d="M200,136c0-4.4-3.6-8-8-8s-8,3.6-8,8v24c0,4.4,3.6,8,8,8s8-3.6,8-8V136z"/>
<path d="M136,144c0-4.4-3.6-8-8-8s-8,3.6-8,8v16c0,4.4,3.6,8,8,8s8-3.6,8-8V144z"/>
<circle cx="128" cy="184" r="8"/>
<circle cx="192" cy="184" r="8"/>
</symbol><symbol id="blueprint" viewBox="0 0 480 416">
<g id="Blueprint">
	<path d="M424,0c-4.4,0-8,3.6-8,8v40H64V8c0-4.4-3.6-8-8-8C25.1,0,0,25.1,0,56v305.7c0,30,24.3,54.3,54.3,54.3h371.4
		c30,0,54.3-24.4,54.3-54.4V56C480,25.1,454.9,0,424,0z M16,56c0-19,13.4-35.4,32-39.2v287.8c-12.2,1.8-23.4,7.5-32,16.3V56z
		 M464,361.7c0,21.1-17.2,38.3-38.3,38.3H54.3C33.2,400,16,382.8,16,361.6V360c0-22.1,17.9-40,40-40c4.4,0,8-3.6,8-8V64h352v248
		c0,4.4,3.6,8,8,8c22.1,0,40,17.9,40,40V361.7z M464,320.8c-8.6-8.8-19.8-14.5-32-16.3V16.8c18.6,3.8,32,20.2,32,39.2V320.8z"/>
	<path d="M392,112H160c-4.4,0-8,3.6-8,8v56H88c-4.4,0-8,3.6-8,8v160c0,4.4,3.6,8,8,8h192c4.4,0,8-3.6,8-8V240h56c4.4,0,8-3.6,8-8
		s-3.6-8-8-8H200c-4.4,0-8,3.6-8,8v40c0,4.4,3.6,8,8,8s8-3.6,8-8v-32h64v96h-64v-32c0-4.4-3.6-8-8-8s-8,3.6-8,8v32H96v-64h64
		c4.4,0,8-3.6,8-8s-3.6-8-8-8H96v-64h64c4.4,0,8-3.6,8-8v-56h104v64c0,4.4,3.6,8,8,8s8-3.6,8-8v-64h40.6c3.7,29,26.5,51.8,55.4,55.4
		V336h-64c-4.4,0-8,3.6-8,8s3.6,8,8,8h72c4.4,0,8-3.6,8-8V120C400,115.6,396.4,112,392,112z M344.7,128H384v39.3
		C363.9,163.8,348.2,148.1,344.7,128z"/>
</g>
</symbol><symbol id="cafe" viewBox="0 0 448 481.6">
<g id="outline">
	<path d="M248,320c4.4,0,8-3.6,8-8v-16h88c4.4,0,8-3.6,8-8v-32c0-4.4-3.6-8-8-8H232V102.5c2.6,0.9,5.3,1.4,8,1.5h64
		c5.9,0,11.6-2.2,16-6.2c4.4,4,10.1,6.2,16,6.2h56c13.3,0,24-10.7,24-24V64c0-0.2-0.1-0.5-0.2-0.7c0-0.6-0.2-1.2-0.3-1.7
		c-0.1-0.4-0.3-0.8-0.5-1.2c-0.3-0.5-0.6-1-0.9-1.4c-0.3-0.3-0.5-0.6-0.8-0.9c-0.4-0.4-0.9-0.7-1.4-0.9c-0.4-0.2-0.7-0.4-1.1-0.6
		c-0.1-0.1-0.2-0.2-0.4-0.2l-184-56h-0.1l-0.1-0.1c-0.3-0.1-0.7-0.1-1-0.1c-0.2,0-0.4-0.1-0.7-0.1C224.2,0,224.1,0,224,0
		s-0.2,0-0.4,0c-0.2,0-0.4,0-0.7,0.1c-0.3,0-0.7,0.1-1,0.1l-0.1,0.1h-0.1l-184,56c-0.2,0-0.3,0.2-0.4,0.2c-0.4,0.2-0.8,0.4-1.1,0.6
		c-0.5,0.3-1,0.6-1.4,0.9c-0.3,0.3-0.6,0.6-0.8,0.9c-0.4,0.4-0.7,0.9-0.9,1.4c-0.2,0.4-0.3,0.8-0.5,1.2c-0.2,0.6-0.3,1.1-0.3,1.7
		C32.1,63.5,32,63.7,32,64v16c0,13.3,10.7,24,24,24h56c5.9,0,11.6-2.2,16-6.2c4.4,4,10.1,6.2,16,6.2h64c2.7,0,5.4-0.5,8-1.5V248H104
		c-4.4,0-8,3.6-8,8v32c0,4.4,3.6,8,8,8h88v16c0,4.4,3.6,8,8,8h16v128h-40c-4.4,0-8,3.6-8,8v24h16v-16h32v16h16v-16h32v16h16v-24
		c0-4.4-3.6-8-8-8h-40V320H248z M232,21.9L290.4,56H232V21.9z M216,21.9V56h-58.4L216,21.9z M304,88h-64c-4.4,0-8-3.6-8-8v-8h80v8
		C312,84.4,308.4,88,304,88z M400,80c0,4.4-3.6,8-8,8h-56c-4.4,0-8-3.6-8-8v-8h72V80z M322.2,56l-35-20.4l67,20.4H322.2z
		 M160.8,35.6l-35,20.4H93.8L160.8,35.6z M112,88H56c-4.4,0-8-3.6-8-8v-8h72v8C120,84.4,116.4,88,112,88z M208,88h-64
		c-4.4,0-8-3.6-8-8v-8h80v8C216,84.4,212.4,88,208,88z M112,264h224v16H112V264z M208,296h32v8h-32V296z"/>
	<path d="M160,344c0-13.3-10.7-24-24-24H48V208c0-13.3-10.7-24-24-24S0,194.7,0,208v128c0.1,14,9.2,26.3,22.6,30.4l-22.4,112
		l15.7,3.1L30.6,408h98.9l14.7,73.6l15.7-3.1l-22.1-110.6C150.2,367,160,356.6,160,344z M33.8,392l4.8-24h82.9l4.8,24H33.8z
		 M136,352H32c-8.8,0-16-7.2-16-16V208c0-4.4,3.6-8,8-8s8,3.6,8,8v120c0,4.4,3.6,8,8,8h96c4.4,0,8,3.6,8,8S140.4,352,136,352z"/>
	<path d="M448,336V208c0-13.3-10.7-24-24-24s-24,10.7-24,24v112h-88c-13.2,0-23.9,10.7-23.9,24c0,12.5,9.7,22.9,22.2,23.9
		l-22.1,110.6l15.7,3.1l14.7-73.5h98.9l14.7,73.6l15.7-3.1l-22.4-112C438.8,362.4,448,350,448,336z M321.8,392l4.8-24h82.9l4.8,24
		H321.8z M432,336c0,8.8-7.2,16-16,16H312c-4.4,0-8-3.6-8-8s3.6-8,8-8h96c4.4,0,8-3.6,8-8V208c0-4.4,3.6-8,8-8s8,3.6,8,8V336z"/>
</g>
</symbol><symbol id="facebook-logo" viewBox="0 0 96.124 96.123">
<g>
	<path d="M72.089,0.02L59.624,0C45.62,0,36.57,9.285,36.57,23.656v10.907H24.037c-1.083,0-1.96,0.878-1.96,1.961v15.803
		c0,1.083,0.878,1.96,1.96,1.96h12.533v39.876c0,1.083,0.877,1.96,1.96,1.96h16.352c1.083,0,1.96-0.878,1.96-1.96V54.287h14.654
		c1.083,0,1.96-0.877,1.96-1.96l0.006-15.803c0-0.52-0.207-1.018-0.574-1.386c-0.367-0.368-0.867-0.575-1.387-0.575H56.842v-9.246
		c0-4.444,1.059-6.7,6.848-6.7l8.397-0.003c1.082,0,1.959-0.878,1.959-1.96V1.98C74.046,0.899,73.17,0.022,72.089,0.02z"/>
</g>
<g>
</g>
<g>
</g>
<g>
</g>
<g>
</g>
<g>
</g>
<g>
</g>
<g>
</g>
<g>
</g>
<g>
</g>
<g>
</g>
<g>
</g>
<g>
</g>
<g>
</g>
<g>
</g>
<g>
</g>
</symbol><symbol id="instagram" viewBox="0 0 512.00096 512.00096"><path d="m373.40625 0h-234.8125c-76.421875 0-138.59375 62.171875-138.59375 138.59375v234.816406c0 76.417969 62.171875 138.589844 138.59375 138.589844h234.816406c76.417969 0 138.589844-62.171875 138.589844-138.589844v-234.816406c0-76.421875-62.171875-138.59375-138.59375-138.59375zm-117.40625 395.996094c-77.195312 0-139.996094-62.800782-139.996094-139.996094s62.800782-139.996094 139.996094-139.996094 139.996094 62.800782 139.996094 139.996094-62.800782 139.996094-139.996094 139.996094zm143.34375-246.976563c-22.8125 0-41.367188-18.554687-41.367188-41.367187s18.554688-41.371094 41.367188-41.371094 41.371094 18.558594 41.371094 41.371094-18.558594 41.367187-41.371094 41.367187zm0 0"/><path d="m256 146.019531c-60.640625 0-109.980469 49.335938-109.980469 109.980469 0 60.640625 49.339844 109.980469 109.980469 109.980469 60.644531 0 109.980469-49.339844 109.980469-109.980469 0-60.644531-49.335938-109.980469-109.980469-109.980469zm0 0"/><path d="m399.34375 96.300781c-6.257812 0-11.351562 5.09375-11.351562 11.351563 0 6.257812 5.09375 11.351562 11.351562 11.351562 6.261719 0 11.355469-5.089844 11.355469-11.351562 0-6.261719-5.09375-11.351563-11.355469-11.351563zm0 0"/></symbol><symbol id="kitchen" viewBox="0 0 512 512">
<g>
	<g>
		<g>
			<path d="M504,304H344v-16h8c4.4,0,8-3.6,8-8s-3.6-8-8-8h-8v-8c0-17.7,14.3-32,32-32s32,14.3,32,32c0,4.4,3.6,8,8,8s8-3.6,8-8
				c0-26.5-21.5-48-48-48s-48,21.5-48,48v40H193.8c4-4.4,6.2-10.1,6.2-16v-48c0-4.4-3.6-8-8-8H72c-4.4,0-8,3.6-8,8v48
				c0,5.9,2.2,11.6,6.2,16H8c-4.4,0-8,3.6-8,8v192c0,4.4,3.6,8,8,8h496c4.4,0,8-3.6,8-8V312C512,307.6,508.4,304,504,304z M80,248
				h104v40c0,4.4-3.6,8-8,8H88c-4.4,0-8-3.6-8-8V248z M128,496H16v-96h112V496z M128,384H16v-64h24c0,4.4,3.6,8,8,8h48
				c4.4,0,8-3.6,8-8h24V384z M368,496H144V320h224V496z M496,496H384v-96h112V496z M496,384H384v-64h24c0,4.4,3.6,8,8,8h48
				c4.4,0,8-3.6,8-8h24V384z"/>
			<path d="M160,440h192c4.4,0,8-3.6,8-8v-80c0-4.4-3.6-8-8-8H160c-4.4,0-8,3.6-8,8v80C152,436.4,155.6,440,160,440z M168,360h176
				v64H168V360z"/>
			<path d="M304,464h-96c-4.4,0-8,3.6-8,8s3.6,8,8,8h96c4.4,0,8-3.6,8-8S308.4,464,304,464z"/>
			<path d="M88,120h336c4.4,0,8-3.6,8-8V8c0-4.4-3.6-8-8-8H88c-4.4,0-8,3.6-8,8v104C80,116.4,83.6,120,88,120z M264,16h152v88H264
				V16z M96,16h152v88H96V16z"/>
			<path d="M200,56h-64c-4.4,0-8,3.6-8,8s3.6,8,8,8h64c4.4,0,8-3.6,8-8S204.4,56,200,56z"/>
			<path d="M376,56h-64c-4.4,0-8,3.6-8,8s3.6,8,8,8h64c4.4,0,8-3.6,8-8S380.4,56,376,56z"/>
			<path d="M91.2,197.6c-6.6,3.8-10.9,10.8-11.2,18.4c0,4.4,3.6,8,8,8s8-3.6,8-8c0-1.7,0.8-2.6,4.8-5.6c6.6-3.8,10.9-10.8,11.2-18.4
				c-0.3-7.6-4.6-14.6-11.2-18.4c-4-3-4.8-3.9-4.8-5.6s0.8-2.6,4.8-5.6c6.6-3.8,10.9-10.8,11.2-18.4c0-4.4-3.6-8-8-8s-8,3.6-8,8
				c0,1.7-0.8,2.6-4.8,5.6c-6.6,3.8-10.9,10.8-11.2,18.4c0.3,7.6,4.6,14.6,11.2,18.4c4,3,4.8,3.9,4.8,5.6S95.2,194.6,91.2,197.6z"/>
			<path d="M140.8,162.4c6.6-3.8,10.9-10.8,11.2-18.4c0-4.4-3.6-8-8-8s-8,3.6-8,8c0,1.7-0.8,2.6-4.8,5.6
				c-6.6,3.8-10.9,10.8-11.2,18.4c0.3,7.6,4.6,14.6,11.2,18.4c4,3,4.8,3.9,4.8,5.6s-0.8,2.6-4.8,5.6c-6.6,3.8-10.9,10.8-11.2,18.4
				c0,4.4,3.6,8,8,8s8-3.6,8-8c0-1.7,0.8-2.6,4.8-5.6c6.6-3.8,10.9-10.8,11.2-18.4c-0.3-7.6-4.6-14.6-11.2-18.4
				c-4-3-4.8-3.9-4.8-5.6S136.8,165.4,140.8,162.4z"/>
			<path d="M180.8,162.4c6.6-3.8,10.9-10.8,11.2-18.4c0-4.4-3.6-8-8-8s-8,3.6-8,8c0,1.7-0.8,2.6-4.8,5.6
				c-6.6,3.8-10.9,10.8-11.2,18.4c0.3,7.6,4.6,14.6,11.2,18.4c4,3,4.8,3.9,4.8,5.6s-0.8,2.6-4.8,5.6c-6.6,3.8-10.9,10.8-11.2,18.4
				c0,4.4,3.6,8,8,8s8-3.6,8-8c0-1.7,0.8-2.6,4.8-5.6c6.6-3.8,10.9-10.8,11.2-18.4c-0.3-7.6-4.6-14.6-11.2-18.4
				c-4-3-4.8-3.9-4.8-5.6S176.8,165.4,180.8,162.4z"/>
		</g>
	</g>
</g>
</symbol><symbol id="living-room" viewBox="0 0 512 512"><title>Living Room</title><path d="M473,331.916V273.648A39.71,39.71,0,0,0,433.328,234H376V170h44.009a6.289,6.289,0,0,0,5.747-8.02L404.831,92.248A5.976,5.976,0,0,0,399.084,88H340.916a5.932,5.932,0,0,0-5.747,4.2L314.244,161.92a6.372,6.372,0,0,0,.934,5.483,6.176,6.176,0,0,0,4.813,2.6H364v64H88.675A39.713,39.713,0,0,0,49,273.648v58.268a39.417,39.417,0,0,0-37,39.556V463.1a5.915,5.915,0,0,0,6,5.9H35v30a6.246,6.246,0,0,0,6.28,6h67.867A5.877,5.877,0,0,0,115,499V469H407v30a5.879,5.879,0,0,0,5.855,6h67.869A6.243,6.243,0,0,0,487,499V469h17a5.913,5.913,0,0,0,6-5.9V371.472A39.417,39.417,0,0,0,473,331.916ZM345.381,100h49.238l17.326,58h-83.89ZM88.675,246H433.328A27.7,27.7,0,0,1,461,273.648v59.3a39.854,39.854,0,0,0-30,38.526V390H91V371.472a39.854,39.854,0,0,0-30-38.526v-59.3A27.7,27.7,0,0,1,88.675,246ZM103,493H47V469h56Zm372,0H419V469h56Zm23-36H24V371.472a27.5,27.5,0,1,1,55,0V395.8a6.448,6.448,0,0,0,6.31,6.2H436.693A6.445,6.445,0,0,0,443,395.8V371.472a27.5,27.5,0,1,1,55,0Z"/><path d="M214,203.238V56.626A5.64,5.64,0,0,0,208.062,51h-53.92L112.272,8.944a5.737,5.737,0,0,0-8.484.047L61.919,51H8a5.693,5.693,0,0,0-6,5.626V203.238A5.8,5.8,0,0,0,8,209H208.062A5.749,5.749,0,0,0,214,203.238ZM174,131.8l-42.23,19.686L80.365,116.443a6.245,6.245,0,0,0-7.131.163L41,140.686V87H174ZM41,155.689l36.062-26.911,50.885,34.542a6.17,6.17,0,0,0,3.427,1.039,5.169,5.169,0,0,0,2.332-.557L174,145.025V173H41ZM178.155,75H37.689L23.243,63H192.5ZM29,84.091V176.2L14,189.928V70.473ZM37.7,185H178.14l13.767,12H23.835ZM186,176.21V84.078l16-13.9V190.226ZM108.03,21.859,137.172,51H78.889Z"/><path d="M128.374,133.2a20.214,20.214,0,1,0-20.214-20.214A20.236,20.236,0,0,0,128.374,133.2Zm0-28.427a8.214,8.214,0,1,1-8.214,8.213A8.223,8.223,0,0,1,128.374,104.768Z"/><path d="M348.787,308.44a22.087,22.087,0,0,0,0,21.662l-8.479,8.479a6,6,0,1,0,8.484,8.485l8.479-8.48a22.09,22.09,0,0,0,21.662,0l8.478,8.479a6,6,0,0,0,8.486-8.485l-8.487-8.488a22.211,22.211,0,0,0,0-21.644l8.487-8.488a6,6,0,0,0-8.486-8.485l-8.478,8.479a22.092,22.092,0,0,0-21.661,0l-8.48-8.479a6,6,0,1,0-8.484,8.485Zm19.316.678a10.156,10.156,0,1,1-7.179,2.974A10.083,10.083,0,0,1,368.1,309.118Z"/><path d="M238.787,308.44a22.087,22.087,0,0,0,0,21.662l-8.479,8.479a6,6,0,1,0,8.484,8.485l8.479-8.48a22.09,22.09,0,0,0,21.662,0l8.478,8.479a6,6,0,0,0,8.486-8.485l-8.487-8.488a22.211,22.211,0,0,0,0-21.644l8.487-8.488a6,6,0,0,0-8.486-8.485l-8.478,8.479a22.092,22.092,0,0,0-21.661,0l-8.48-8.479a6,6,0,1,0-8.484,8.485Zm19.316.678a10.156,10.156,0,1,1-7.179,2.974A10.083,10.083,0,0,1,258.1,309.118Z"/><path d="M128.787,308.44a22.087,22.087,0,0,0,0,21.662l-8.479,8.479a6,6,0,1,0,8.484,8.485l8.479-8.48a22.09,22.09,0,0,0,21.662,0l8.478,8.479a6,6,0,0,0,8.486-8.485l-8.487-8.488a22.211,22.211,0,0,0,0-21.644l8.487-8.488a6,6,0,0,0-8.486-8.485l-8.478,8.479a22.092,22.092,0,0,0-21.661,0l-8.48-8.479a6,6,0,1,0-8.484,8.485Zm19.316.678a10.156,10.156,0,1,1-7.179,2.974A10.083,10.083,0,0,1,148.1,309.118Z"/></symbol><symbol id="loupe" viewBox="0 0 463.001 463.001">
<g>
	<path d="M303.501,0c-87.948,0-159.5,71.551-159.5,159.5c0,36.188,12.122,69.593,32.507,96.386l-32.311,32.311
		c-0.205,0.205-0.392,0.421-0.569,0.643c-2.645-0.551-5.363-0.84-8.127-0.84c-10.55,0-20.47,4.109-27.933,11.572l-95.999,95.999
		C4.108,403.03,0,412.949,0,423.5s4.108,20.471,11.568,27.928C19.031,458.891,28.951,463,39.501,463s20.47-4.109,27.933-11.572
		l95.999-95.999c7.461-7.458,11.569-17.377,11.569-27.929c0-2.765-0.289-5.484-0.84-8.129c0.222-0.176,0.437-0.363,0.642-0.568
		l32.31-32.31C233.908,306.879,267.313,319,303.501,319c87.948,0,159.5-71.551,159.5-159.5S391.449,0,303.501,0z M56.826,440.822
		C52.197,445.451,46.045,448,39.501,448s-12.696-2.549-17.326-7.179C17.548,436.196,15,430.045,15,423.5s2.548-12.696,7.176-17.322
		l86.698-86.698l34.647,34.647L56.826,440.822z M154.075,343.468l-34.528-34.528c4.575-3.936,10.258-5.926,15.954-5.926
		c6.274,0,12.55,2.389,17.326,7.166c4.627,4.625,7.175,10.776,7.175,17.321C160.002,333.427,157.906,339.027,154.075,343.468z
		 M167.73,304.665c-1.278-1.796-2.706-3.503-4.296-5.092c-1.592-1.591-3.301-3.02-5.098-4.299l27.841-27.841
		c3,3.259,6.134,6.393,9.393,9.393L167.73,304.665z M303.501,304c-79.678,0-144.5-64.822-144.5-144.5S223.823,15,303.501,15
		s144.5,64.822,144.5,144.5S383.179,304,303.501,304z"/>
	<path d="M303.501,32c-70.304,0-127.5,57.196-127.5,127.5S233.197,287,303.501,287s127.5-57.196,127.5-127.5S373.805,32,303.501,32z
		 M303.501,272c-62.032,0-112.5-50.467-112.5-112.5S241.469,47,303.501,47s112.5,50.467,112.5,112.5S365.533,272,303.501,272z"/>
	<path d="M355.58,79.438c-3.47-2.262-8.116-1.283-10.378,2.188c-2.262,3.47-1.282,8.117,2.188,10.378
		c22.924,14.94,36.61,40.172,36.61,67.496c0,18.667-6.534,36.86-18.399,51.226c-2.638,3.193-2.187,7.921,1.007,10.559
		c1.398,1.155,3.09,1.717,4.772,1.717c2.16,0,4.304-0.929,5.787-2.724c14.079-17.047,21.833-38.632,21.833-60.777
		C399.001,127.087,382.769,97.158,355.58,79.438z"/>
	<path d="M320.856,65.575C315.168,64.53,309.329,64,303.501,64c-4.143,0-7.5,3.358-7.5,7.5s3.357,7.5,7.5,7.5
		c4.922,0,9.849,0.447,14.645,1.328c0.459,0.084,0.914,0.125,1.364,0.125c3.549,0,6.703-2.531,7.368-6.146
		C327.626,70.233,324.93,66.324,320.856,65.575z"/>
</g>
<g>
</g>
<g>
</g>
<g>
</g>
<g>
</g>
<g>
</g>
<g>
</g>
<g>
</g>
<g>
</g>
<g>
</g>
<g>
</g>
<g>
</g>
<g>
</g>
<g>
</g>
<g>
</g>
<g>
</g>
</symbol><symbol id="mail" viewBox="0 0 31.012 31.012">
<g>
	<g>
		<path d="M25.109,21.51c-0.123,0-0.246-0.045-0.342-0.136l-5.754-5.398c-0.201-0.188-0.211-0.505-0.022-0.706
			c0.189-0.203,0.504-0.212,0.707-0.022l5.754,5.398c0.201,0.188,0.211,0.505,0.022,0.706C25.375,21.457,25.243,21.51,25.109,21.51z
			"/>
		<path d="M5.902,21.51c-0.133,0-0.266-0.053-0.365-0.158c-0.189-0.201-0.179-0.518,0.022-0.706l5.756-5.398
			c0.202-0.188,0.519-0.18,0.707,0.022c0.189,0.201,0.179,0.518-0.022,0.706l-5.756,5.398C6.148,21.465,6.025,21.51,5.902,21.51z"/>
	</g>
	<path d="M28.512,26.529H2.5c-1.378,0-2.5-1.121-2.5-2.5V6.982c0-1.379,1.122-2.5,2.5-2.5h26.012c1.378,0,2.5,1.121,2.5,2.5v17.047
		C31.012,25.408,29.89,26.529,28.512,26.529z M2.5,5.482c-0.827,0-1.5,0.673-1.5,1.5v17.047c0,0.827,0.673,1.5,1.5,1.5h26.012
		c0.827,0,1.5-0.673,1.5-1.5V6.982c0-0.827-0.673-1.5-1.5-1.5H2.5z"/>
	<path d="M15.506,18.018c-0.665,0-1.33-0.221-1.836-0.662L0.83,6.155C0.622,5.974,0.6,5.658,0.781,5.449
		c0.183-0.208,0.498-0.227,0.706-0.048l12.84,11.2c0.639,0.557,1.719,0.557,2.357,0L29.508,5.419
		c0.207-0.181,0.522-0.161,0.706,0.048c0.181,0.209,0.16,0.524-0.048,0.706L17.342,17.355
		C16.835,17.797,16.171,18.018,15.506,18.018z"/>
</g>
<g>
</g>
<g>
</g>
<g>
</g>
<g>
</g>
<g>
</g>
<g>
</g>
<g>
</g>
<g>
</g>
<g>
</g>
<g>
</g>
<g>
</g>
<g>
</g>
<g>
</g>
<g>
</g>
<g>
</g>
</symbol><symbol id="pinterest" viewBox="0 0 310.05 310.05">
<g id="XMLID_798_">
	<path id="XMLID_799_" d="M245.265,31.772C223.923,11.284,194.388,0,162.101,0c-49.32,0-79.654,20.217-96.416,37.176
		c-20.658,20.9-32.504,48.651-32.504,76.139c0,34.513,14.436,61.003,38.611,70.858c1.623,0.665,3.256,1,4.857,1
		c5.1,0,9.141-3.337,10.541-8.69c0.816-3.071,2.707-10.647,3.529-13.936c1.76-6.495,0.338-9.619-3.5-14.142
		c-6.992-8.273-10.248-18.056-10.248-30.788c0-37.818,28.16-78.011,80.352-78.011c41.412,0,67.137,23.537,67.137,61.425
		c0,23.909-5.15,46.051-14.504,62.35c-6.5,11.325-17.93,24.825-35.477,24.825c-7.588,0-14.404-3.117-18.705-8.551
		c-4.063-5.137-5.402-11.773-3.768-18.689c1.846-7.814,4.363-15.965,6.799-23.845c4.443-14.392,8.643-27.985,8.643-38.83
		c0-18.55-11.404-31.014-28.375-31.014c-21.568,0-38.465,21.906-38.465,49.871c0,13.715,3.645,23.973,5.295,27.912
		c-2.717,11.512-18.865,79.953-21.928,92.859c-1.771,7.534-12.44,67.039,5.219,71.784c19.841,5.331,37.576-52.623,39.381-59.172
		c1.463-5.326,6.582-25.465,9.719-37.845c9.578,9.226,25,15.463,40.006,15.463c28.289,0,53.73-12.73,71.637-35.843
		c17.367-22.418,26.932-53.664,26.932-87.978C276.869,77.502,265.349,51.056,245.265,31.772z"/>
</g>
<g>
</g>
<g>
</g>
<g>
</g>
<g>
</g>
<g>
</g>
<g>
</g>
<g>
</g>
<g>
</g>
<g>
</g>
<g>
</g>
<g>
</g>
<g>
</g>
<g>
</g>
<g>
</g>
<g>
</g>
</symbol><symbol id="right-arrow" viewBox="0 0 129 129">
  <g>
    <path d="m40.4,121.3c-0.8,0.8-1.8,1.2-2.9,1.2s-2.1-0.4-2.9-1.2c-1.6-1.6-1.6-4.2 0-5.8l51-51-51-51c-1.6-1.6-1.6-4.2 0-5.8 1.6-1.6 4.2-1.6 5.8,0l53.9,53.9c1.6,1.6 1.6,4.2 0,5.8l-53.9,53.9z"/>
  </g>
</symbol><symbol id="right-quotation-sign" viewBox="0 0 98.829 98.829">
<g>
	<g>
		<path d="M96.76,41.603C91.511,22.831,78.562,9.204,65.975,9.204c-1.011,0-2.021,0.088-3.005,0.262
			c-0.558,0.098-1.046,0.426-1.348,0.902c-0.301,0.479-0.386,1.061-0.233,1.605l2.591,9.268c0.25,0.895,1.113,1.5,2.01,1.459
			l0.206-0.004c4.668,0,13.199,6.996,17.548,22.545c0.172,0.617,0.335,1.248,0.492,1.906c-4.882-2.416-10.706-2.975-15.98-1.506
			C56.358,48.97,49.388,61.356,52.714,73.252c2.696,9.639,11.563,16.373,21.563,16.373c2.037,0,4.071-0.281,6.046-0.834
			c7.846-2.193,13.745-8.707,16.611-18.338C99.521,61.764,99.456,51.249,96.76,41.603z"/>
		<path d="M14.088,9.206c-1.009,0-2.02,0.086-3.003,0.26c-0.557,0.096-1.046,0.426-1.347,0.902
			c-0.301,0.479-0.386,1.061-0.234,1.605l2.592,9.268c0.25,0.895,1.097,1.5,2.01,1.459l0.204-0.004
			c4.668,0,13.2,6.996,17.549,22.545c0.173,0.621,0.336,1.252,0.492,1.906c-4.884-2.416-10.706-2.975-15.98-1.506
			C4.475,48.97-2.497,61.356,0.831,73.252c2.696,9.639,11.563,16.373,21.563,16.373c2.037,0,4.071-0.281,6.047-0.834
			c7.845-2.193,13.744-8.707,16.611-18.338c2.586-8.689,2.522-19.205-0.175-28.852C39.625,22.831,26.678,9.206,14.088,9.206z"/>
	</g>
</g>
<g>
</g>
<g>
</g>
<g>
</g>
<g>
</g>
<g>
</g>
<g>
</g>
<g>
</g>
<g>
</g>
<g>
</g>
<g>
</g>
<g>
</g>
<g>
</g>
<g>
</g>
<g>
</g>
<g>
</g>
</symbol><symbol id="sketch" viewBox="0 0 511.999 511.999">
<g>
	<g>
		<path d="M453.034,361.322c-2.808-1.164-6.04-0.521-8.19,1.628l-82.126,82.126c-2.149,2.15-2.792,5.382-1.628,8.19
			c1.162,2.809,3.904,4.639,6.943,4.639h82.126c4.151,0,7.515-3.364,7.515-7.515v-82.126
			C457.673,365.225,455.842,362.485,453.034,361.322z M386.173,442.876l56.469-56.469v56.469H386.173z"/>
	</g>
</g>
<g>
	<g>
		<path d="M507.361,240.867c-2.808-1.164-6.04-0.521-8.19,1.628l-22.507,22.507V111.971c0-4.151-3.365-7.515-7.515-7.515h-57.741
			l20.96-20.96c0.003-0.003,0.006-0.007,0.009-0.01l20.196-20.196c4.327-4.327,6.71-10.083,6.71-16.203s-2.383-11.874-6.71-16.203
			L429.219,7.53c-4.327-4.327-10.083-6.71-16.203-6.71s-11.875,2.383-16.203,6.71l-20.206,20.206l-24.416,24.416l-52.303,52.303
			H66.62V30.11c0-4.151-3.365-7.515-7.515-7.515C26.515,22.597,0,49.11,0,81.702v319.186c0,0.555,0.064,1.095,0.178,1.615
			c1.038,13.829,7.021,26.678,17.02,36.432C27.886,449.359,41.995,455.1,56.927,455.1h229.638l-43.249,43.249
			c-2.149,2.15-2.792,5.381-1.629,8.19c1.163,2.808,3.904,4.639,6.943,4.639h255.855c4.15,0,7.515-3.364,7.515-7.515V247.81
			C512,244.771,510.168,242.03,507.361,240.867z M407.443,18.159c3.072-3.074,8.077-3.074,11.149,0l23.355,23.355
			c3.074,3.073,3.074,8.076,0,11.15l-14.891,14.892L392.55,33.051L407.443,18.159z M381.922,43.679l34.505,34.504l-13.789,13.789
			l-34.503-34.504L381.922,43.679z M496.972,332.252h-13.865c-4.151,0-7.515,3.364-7.515,7.515c0,4.151,3.364,7.515,7.515,7.515
			h13.865v22.646h-13.865c-4.151,0-7.515,3.364-7.515,7.515s3.364,7.515,7.515,7.515h13.865v22.645h-13.865
			c-4.151,0-7.515,3.364-7.515,7.515c0,4.151,3.364,7.515,7.515,7.515h13.865v22.646h-13.865c-4.151,0-7.515,3.365-7.515,7.515
			c0,4.151,3.364,7.515,7.515,7.515h13.865v35.842h-230.2l75.908-75.907c2.935-2.936,2.935-7.693,0-10.628
			c-0.337-0.337-0.699-0.629-1.078-0.889c-2.926-2.004-6.952-1.709-9.551,0.889l-30.456,30.456H56.928
			c-22.792,0-41.14-17.794-41.862-40.545c0.043-1.428,0.154-2.844,0.332-4.244c0.001-0.008,0.002-0.016,0.003-0.024
			c0.084-0.665,0.185-1.327,0.3-1.985c0.013-0.075,0.027-0.15,0.04-0.225c0.105-0.587,0.223-1.171,0.352-1.753
			c0.036-0.162,0.074-0.324,0.112-0.485c0.114-0.492,0.237-0.981,0.369-1.468c0.072-0.264,0.147-0.525,0.224-0.788
			c0.11-0.382,0.224-0.763,0.345-1.14c0.121-0.377,0.25-0.75,0.381-1.123c0.091-0.261,0.181-0.522,0.279-0.781
			c0.183-0.492,0.377-0.979,0.577-1.462c0.057-0.139,0.113-0.28,0.172-0.419c0.257-0.6,0.524-1.193,0.806-1.779
			c0.012-0.025,0.023-0.05,0.035-0.075c5.878-12.164,17.183-21.233,30.75-24.047c0.038-0.008,0.076-0.017,0.114-0.025
			c0.622-0.127,1.25-0.236,1.882-0.337c0.105-0.017,0.21-0.038,0.317-0.054c0.571-0.087,1.148-0.155,1.725-0.22
			c0.162-0.018,0.323-0.043,0.486-0.059c0.557-0.056,1.119-0.093,1.681-0.128c0.178-0.011,0.356-0.03,0.534-0.039
			c0.736-0.037,1.478-0.056,2.223-0.056c4.15,0,7.515-3.364,7.515-7.515v-54.489c0-4.151-3.365-7.515-7.515-7.515
			c-4.15,0-7.515,3.364-7.515,7.515v47.447c-12.69,1.605-24.469,7.265-33.757,16.335c-0.977,0.954-1.903,1.946-2.805,2.954V81.702
			c0-21.741,15.826-39.858,36.561-43.436v73.705v152.777v0.001c0,4.15,3.365,7.515,7.515,7.515c4.15,0,7.515-3.365,7.515-7.515
			v-0.001V119.486h218.24l-41.544,41.544c-2.935,2.936-2.935,7.693,0,10.628c2.935,2.934,7.693,2.934,10.627,0l54.373-54.373
			c0.002-0.002,0.003-0.004,0.005-0.005l49.185-49.185l34.503,34.505l-4.048,4.048c-0.003,0.003-0.007,0.006-0.01,0.009
			l-151.528,151.53l-34.504-34.504l29.868-29.868c2.935-2.936,2.935-7.693,0-10.628c-2.935-2.934-7.693-2.934-10.627,0
			l-35.183,35.182c-0.188,0.188-0.364,0.387-0.529,0.591c-0.055,0.068-0.104,0.141-0.156,0.212c-0.106,0.141-0.21,0.283-0.307,0.431
			c-0.055,0.086-0.105,0.174-0.157,0.263c-0.083,0.14-0.163,0.282-0.236,0.427c-0.048,0.094-0.091,0.189-0.135,0.287
			c-0.067,0.147-0.129,0.297-0.186,0.447c-0.02,0.053-0.046,0.103-0.065,0.156l-14.641,41.475l-9.982,28.279
			c-0.132,0.376-0.227,0.758-0.298,1.143h-24.992c-4.15,0-7.515,3.364-7.515,7.515c0,4.151,3.365,7.515,7.515,7.515h208.114
			c4.151,0,7.515-3.364,7.515-7.515c0-4.151-3.364-7.515-7.515-7.515H193.093l45.83-16.178c0.038-0.014,0.074-0.033,0.112-0.047
			c0.178-0.066,0.353-0.14,0.526-0.219c0.069-0.032,0.138-0.062,0.205-0.095c0.18-0.09,0.357-0.189,0.531-0.295
			c0.056-0.034,0.114-0.065,0.169-0.1c0.181-0.116,0.357-0.243,0.53-0.377c0.043-0.033,0.088-0.062,0.13-0.096
			c0.209-0.168,0.414-0.349,0.608-0.543l154.644-154.643h65.255v160.546L354.137,387.53c-2.935,2.936-2.935,7.693,0,10.628
			c0.183,0.183,0.374,0.355,0.571,0.516c1.378,1.123,3.061,1.685,4.743,1.685s3.366-0.562,4.743-1.685
			c0.197-0.16,0.388-0.333,0.571-0.516c0.003-0.003,0,0,0.003-0.003L496.972,265.95V332.252z M222.677,265.696l-21.526,7.599
			l-14.342-14.342l7.599-21.526L222.677,265.696z"/>
	</g>
</g>
<g>
</g>
<g>
</g>
<g>
</g>
<g>
</g>
<g>
</g>
<g>
</g>
<g>
</g>
<g>
</g>
<g>
</g>
<g>
</g>
<g>
</g>
<g>
</g>
<g>
</g>
<g>
</g>
<g>
</g>
</symbol><symbol id="sofa" viewBox="0 0 492 385.2">
<path d="M208.4,115.9c-5.5,3.9-10.1,8.7-13.8,14.3c-1.8,2.8-1,6.5,1.7,8.3s6.5,1,8.3-1.7l0,0c2.8-4.3,6.4-8.1,10.7-11.1
	c2.7-1.9,3.3-5.7,1.4-8.4C214.8,114.7,211.1,114,208.4,115.9L208.4,115.9z"/>
<path d="M99.7,373.2h-44V98.4c0-0.1,0-0.2,0-0.3c0-47.5,36.6-86.1,81.6-86.1c43.3,0,78.7,35.7,81.4,80.6
	c-26.6,3.2-46.7,25.7-46.7,52.5v9.4c0,3.3,2.7,6,6,6h26.7c2.7,9.6,11.2,16.7,21.3,16.7s18.6-7.1,21.3-16.7h24.5c3.3,0,6-2.7,6-6
	v-9.4c0-26.9-20.3-49.5-47-52.5C228.1,41,187.2,0,137.4,0C85.9,0,44.1,43.7,43.8,97.5c0,0.1,0,0.3,0,0.4v275.3H6c-3.3,0-6,2.7-6,6
	s2.7,6,6,6h93.8c3.3,0,6-2.7,6-6S103.1,373.2,99.7,373.2L99.7,373.2z M226.1,165.2c-3.4-0.1-6.5-1.8-8.3-4.7h16.6
	C232.6,163.4,229.5,165.1,226.1,165.2z M265.9,145.1v3.4h-81.8v-3.4c0-22.6,18.3-40.9,40.9-40.9S265.9,122.5,265.9,145.1z"/>
<path d="M463.7,280.5v-39.7c-0.1-13.9-11.5-25.2-25.5-25.1H328.4c-6.8,0-13.2,2.6-18,7.4c-0.5,0.5-1,1-1.4,1.5c-4.9-5.7-12-9-19.5-9
	H179.1c-13.9-0.1-25.3,11.1-25.5,25.1v39.8c-14.9,1.3-26.3,13.7-26.5,28.7v69.9c0,3.3,2.7,6,6,6h46.5c3.3,0,6-2.7,6-6v-8l247.8,0.1
	v7.9c0,3.3,2.7,6,6,6H486c3.3,0,6-2.7,6-6v-69.9C491.9,293.6,479.3,280.9,463.7,280.5z M318.9,231.6c2.5-2.5,5.9-3.9,9.5-3.9h109.8
	c7.3-0.1,13.3,5.7,13.5,13.1v41.8c-10.9,4.3-18.1,14.9-18.2,26.6v2.3l-118.5,0l0-70.2C315,237.8,316.4,234.2,318.9,231.6
	L318.9,231.6z M179.1,227.7h110.4c7.3-0.1,13.3,5.7,13.5,13.1l0,70.8l-117.3,0v-2.3c-0.1-12.5-8.2-23.5-20.1-27.3v-41.1
	C165.8,233.5,171.8,227.6,179.1,227.7L179.1,227.7z M173.7,373.2h-34.5v-63.9c0.3-9.5,8.2-17,17.7-16.8c9.2,0.3,16.5,7.6,16.8,16.8
	V373.2z M185.7,359.2v-35.7l123.3,0h0l124.5,0v35.7L185.7,359.2z M480,373.2h-34.5v-63.9c0.3-9.5,8.2-17.1,17.7-16.8
	c9.2,0.2,16.6,7.6,16.8,16.8V373.2z"/>
</symbol><symbol id="technician" viewBox="0 0 496 496"><path d="m496 211.3125v-45.976562l-28-37.335938h-20v56h-32v-56h-20l-28 37.335938v45.976562l32 32v137.375l-32 32v45.976562l28 37.335938h20v-56h32v56h20l28-37.335938v-45.976562l-32-32v-137.375zm-16 208v34.023438l-16 21.328124v-50.664062h-64v50.664062l-16-21.328124v-34.023438l32-32v-150.625l-32-32v-34.023438l16-21.328124v50.664062h64v-50.664062l16 21.328124v34.023438l-32 32v150.625zm0 0"/><path d="m309.574219 351.160156-85.574219-21.398437v-17.914063c17.574219-13.246094 29.550781-33.503906 31.632812-56.617187 18.414063-3.582031 32.367188-19.789063 32.367188-39.230469v-72c0-53.511719-37.742188-98.320312-88-109.34375v-10.65625c0-13.230469-10.769531-24-24-24s-24 10.769531-24 24v10.679688c-39.808594 8.734374-71.785156 38.632812-83.34375 77.320312h-36.65625c-13.230469 0-24 10.769531-24 24s10.769531 24 24 24h32v56c0 19.441406 13.953125 35.648438 32.367188 39.230469 2.082031 23.121093 14.066406 43.371093 31.632812 56.617187v17.914063l-85.574219 21.398437c-24.976562 6.230469-42.425781 28.566406-42.425781 54.320313v90.519531h352v-90.519531c0-25.753907-17.449219-48.089844-42.425781-54.320313zm-37.574219 65.671875v63.167969h-88v-44.152344l40-32.007812v-11.839844h12.527344l22.242187-37.0625 39.191407 9.796875-13.695313 17.113281c-7.90625 9.894532-12.265625 22.320313-12.265625 34.984375zm-204.265625-34.984375-13.695313-17.113281 39.191407-9.796875 22.242187 37.0625h12.527344v11.839844l40 32.007812v44.152344h-88v-63.167969c0-12.664062-4.359375-25.089843-12.265625-34.984375zm174.808594-30.96875-15.070313 25.121094h-19.472656v20.160156l-24 19.191406v-28.449218l34.9375-41.917969zm-130.542969-190.878906h37.121094c-10.617188 8.519531-23.503906 13.984375-37.121094 15.527344zm64-107.703125 5.480469 6.390625c20.519531 23.945312 32.40625 53.984375 34.167969 85.3125h-79.289063c1.761719-31.328125 13.648437-61.367188 34.167969-85.3125zm-4.3125 107.703125h17.433594c-9.609375 7.710938-21.097656 12.824219-33.28125 14.886719 5.847656-4.261719 11.175781-9.238281 15.847656-14.886719zm40 0h17.433594c-9.609375 7.710938-21.097656 12.824219-33.28125 14.886719 5.847656-4.261719 11.175781-9.238281 15.847656-14.886719zm44.3125 78.527344v-45.046875c9.289062 3.3125 16 12.113281 16 22.527343 0 10.417969-6.710938 19.207032-16 22.519532zm16-54.320313c-4.671875-3.535156-10.054688-6.183593-16-7.390625v-16.816406h16zm0-40.207031h-40.359375c-1.738281-34.472656-14.5625-67.535156-36.753906-94.113281 43.921875 8.800781 77.113281 47.640625 77.113281 94.113281zm-104-120c0-4.414062 3.585938-8 8-8s8 3.585938 8 8v8.40625c-2.65625-.191406-5.296875-.40625-8-.40625-2.695312 0-5.351562.144531-8 .335938zm-10.886719 25.886719c-22.191406 26.578125-35.015625 59.640625-36.753906 94.113281h-40.359375c0-46.472656 33.191406-85.3125 77.113281-94.113281zm-133.113281 86.113281c0-4.414062 3.585938-8 8-8h33.144531c-.753906 5.222656-1.144531 10.566406-1.144531 16h-32c-4.414062 0-8-3.585938-8-8zm72 24v16.808594c-5.945312 1.214844-11.328125 3.855468-16 7.390625v-24.199219zm-16 56c0-10.414062 6.710938-19.214844 16-22.527344v45.046875c-9.289062-3.304687-16-12.105469-16-22.519531zm32 32v-56.472656c11.214844-1.039063 22.078125-4.175782 32-9.238282v9.710938c14.03125 0 27.734375-3.449219 40-9.71875v9.71875c20.535156 0 40.375-7.328125 56-20.175781v76.175781c0 35.289062-28.710938 64-64 64s-64-28.710938-64-64zm64 80c11.375 0 22.191406-2.425781 32-6.726562v11.824218l-32 38.398438-32-38.398438v-11.824218c9.808594 4.300781 20.625 6.726562 32 6.726562zm-42.9375 16.976562 34.9375 41.925782v28.449218l-24-19.191406v-20.160156h-19.472656l-15.070313-25.121094zm-117.0625 60.503907c0-15.257813 8.648438-28.738281 21.761719-35.464844l17.46875 21.839844c5.65625 7.054687 8.769531 15.9375 8.769531 24.976562v63.167969h-48zm320 74.519531h-48v-63.167969c0-9.046875 3.113281-17.921875 8.769531-24.984375l17.46875-21.839844c13.113281 6.726563 21.761719 20.207032 21.761719 35.464844zm0 0"/><path d="m224 208c0 4.417969-3.582031 8-8 8s-8-3.582031-8-8 3.582031-8 8-8 8 3.582031 8 8zm0 0"/><path d="m144 208c0 4.417969-3.582031 8-8 8s-8-3.582031-8-8 3.582031-8 8-8 8 3.582031 8 8zm0 0"/><path d="m176 288c17.648438 0 32-14.351562 32-32h-16c0 8.824219-7.175781 16-16 16s-16-7.175781-16-16h-16c0 17.648438 14.351562 32 32 32zm0 0"/></symbol><symbol id="telephone" viewBox="0 0 482.6 482.6">
<g>
	<path d="M98.339,320.8c47.6,56.9,104.9,101.7,170.3,133.4c24.9,11.8,58.2,25.8,95.3,28.2c2.3,0.1,4.5,0.2,6.8,0.2
		c24.9,0,44.9-8.6,61.2-26.3c0.1-0.1,0.3-0.3,0.4-0.5c5.8-7,12.4-13.3,19.3-20c4.7-4.5,9.5-9.2,14.1-14
		c21.3-22.2,21.3-50.4-0.2-71.9l-60.1-60.1c-10.2-10.6-22.4-16.2-35.2-16.2c-12.8,0-25.1,5.6-35.6,16.1l-35.8,35.8
		c-3.3-1.9-6.7-3.6-9.9-5.2c-4-2-7.7-3.9-11-6c-32.6-20.7-62.2-47.7-90.5-82.4c-14.3-18.1-23.9-33.3-30.6-48.8
		c9.4-8.5,18.2-17.4,26.7-26.1c3-3.1,6.1-6.2,9.2-9.3c10.8-10.8,16.6-23.3,16.6-36s-5.7-25.2-16.6-36l-29.8-29.8
		c-3.5-3.5-6.8-6.9-10.2-10.4c-6.6-6.8-13.5-13.8-20.3-20.1c-10.3-10.1-22.4-15.4-35.2-15.4c-12.7,0-24.9,5.3-35.6,15.5l-37.4,37.4
		c-13.6,13.6-21.3,30.1-22.9,49.2c-1.9,23.9,2.5,49.3,13.9,80C32.739,229.6,59.139,273.7,98.339,320.8z M25.739,104.2
		c1.2-13.3,6.3-24.4,15.9-34l37.2-37.2c5.8-5.6,12.2-8.5,18.4-8.5c6.1,0,12.3,2.9,18,8.7c6.7,6.2,13,12.7,19.8,19.6
		c3.4,3.5,6.9,7,10.4,10.6l29.8,29.8c6.2,6.2,9.4,12.5,9.4,18.7s-3.2,12.5-9.4,18.7c-3.1,3.1-6.2,6.3-9.3,9.4
		c-9.3,9.4-18,18.3-27.6,26.8c-0.2,0.2-0.3,0.3-0.5,0.5c-8.3,8.3-7,16.2-5,22.2c0.1,0.3,0.2,0.5,0.3,0.8
		c7.7,18.5,18.4,36.1,35.1,57.1c30,37,61.6,65.7,96.4,87.8c4.3,2.8,8.9,5,13.2,7.2c4,2,7.7,3.9,11,6c0.4,0.2,0.7,0.4,1.1,0.6
		c3.3,1.7,6.5,2.5,9.7,2.5c8,0,13.2-5.1,14.9-6.8l37.4-37.4c5.8-5.8,12.1-8.9,18.3-8.9c7.6,0,13.8,4.7,17.7,8.9l60.3,60.2
		c12,12,11.9,25-0.3,37.7c-4.2,4.5-8.6,8.8-13.3,13.3c-7,6.8-14.3,13.8-20.9,21.7c-11.5,12.4-25.2,18.2-42.9,18.2
		c-1.7,0-3.5-0.1-5.2-0.2c-32.8-2.1-63.3-14.9-86.2-25.8c-62.2-30.1-116.8-72.8-162.1-127c-37.3-44.9-62.4-86.7-79-131.5
		C28.039,146.4,24.139,124.3,25.739,104.2z"/>
</g>
<g>
</g>
<g>
</g>
<g>
</g>
<g>
</g>
<g>
</g>
<g>
</g>
<g>
</g>
<g>
</g>
<g>
</g>
<g>
</g>
<g>
</g>
<g>
</g>
<g>
</g>
<g>
</g>
<g>
</g>
</symbol></svg>